<?xml version="1.0" encoding="UTF-8"?>
<!-- Title: 1. C:\Users\alex\Documents\pajek\task1\1.net (13) -->
<!-- Creator: Pajek 5.16: http://mrvar.fdv.uni-lj.si/pajek -->
<!-- CreationDate: 12-15-2022, 16:27:16 -->
<svg xml:space="preserve" viewBox="0 0 976 1088" xmlns="http://www.w3.org/2000/svg" xmlns:xlink="http://www.w3.org/1999/xlink" xmlns:inkscape="http://www.inkscape.org/namespaces/inkscape">
<title>1. C:\Users\alex\Documents\pajek\task1\1.net (13)</title>
<g inkscape:groupmode="layer" id="PajekSig" inkscape:label="PajekSignature">
<g transform="translate(3 1070)">
<g transform="scale(0.1)">
<g transform="matrix(1 0 0 -1 0 96)">
<path d="M   7.67  49.98 L  31.76  72.76 L  46.91  78.63
         L  57.23  80.49 M  72.86  65.23 L  65.73  83.25
         L  57.06  75.49 L  56.75  68.65 M  76.27  68.03
         L  75.65  84.50 L  93.92  91.02 L 107.24  74.87
         M  80.29  67.72 L  89.28  84.81 L 104.77  81.70
         L 116.23  73.31 L 121.18  59.33 M  56.75  81.08
         L  71.31  64.30"
         style="fill:none; stroke:saddlebrown; stroke-width:5;"/>
<path d="M  86.18  70.21 L  91.45  73.00 L  95.78  69.58
         M  91.14  60.88 L  96.09  62.75 L  98.26  59.33"
         style="fill:none; stroke:saddlebrown; stroke-width:1.5;"/>
<path d="M  81.07  49.08 L  87.81  49.08 L  93.30  54.38
         L  93.30  60.88 L  93.30  67.39 L  87.81  72.69
         L  81.07  72.69 L  74.33  72.69 L  68.83  67.39
         L  68.83  60.88 L  68.83  54.38 L  74.33  49.08
         L  81.07  49.08 z"
         style="fill:maroon; stroke:saddlebrown; stroke-width:1;"/>
<path d="M  54.63  37.53 L  68.53  43.56 L  75.39  55.85
         L  69.90  65.35 L  64.41  72.86 L  48.60  74.06
         L  34.71  68.04 L  20.81  55.02 L  15.95  40.72
         L  17.44  33.22 L  24.92  28.72 L  40.73  30.51
         L  54.63  37.53 z"
         style="fill:maroon; stroke:saddlebrown; stroke-width:1;" />
<path d="M  77.82  50.63 L 103.84  59.33 L 131.10  43.80
         L 139.46  27.95 L 139.15  15.83 M  35.99   5.27
         L  47.15  32.92 L  61.71  50.01 L  70.07  46.90
         L  82.77  45.04 L  83.39  27.02 L  65.42  12.11
         M  68.52  50.63 L  91.14  49.39 L 103.53  43.17
         L 117.16  22.67 L 115.30   8.38"
         style="fill:none; stroke:saddlebrown; stroke-width:5;"/>
<path d="M  41.57  54.98 L  60.16  64.61 M  52.41  66.17
         L  57.99  57.47"
         style="fill:none; stroke:white; stroke-width:5;"/>
</g>
</g>
<animateMotion dur="20s" path="M3 0 L958 0" begin="120s" fill="freeze"/>
</g>
<g transform="translate(3 1070)">
<g transform="scale(0.1)">
<text x="5" y="140" style="font-family:Brush Script MT;font-size:75px;fill:green;">Pajek</text>
</g>
<animateMotion dur="0.1s" path="M3 0 L958 0" begin="120s" fill="freeze"/>
</g>
</g>      <!-- Layer Signature -->

<g inkscape:groupmode="layer" id="PajekNet" inkscape:label="PajekNetwork">

<!-- Arc:     3    8 -->
<g transform="translate(839.78 627.04)">
<g transform="rotate(397.57)">
<path d="M 0 0 L -3.00 7.50 L 15.00 0 L -3.00 -7.50 z" style="fill:rgb(255,181,40)"/>
</g></g>
<line x1="266.23" y1="185.84" x2="839.78" y2="627.04" style="stroke-width:2.00;stroke:rgb(255,181,40)"/>
<!-- Arc:     3   11 -->
<g transform="translate(431.43 932.16)">
<g transform="rotate(437.52)">
<path d="M 0 0 L -3.00 7.50 L 15.00 0 L -3.00 -7.50 z" style="fill:rgb(255,58,33)"/>
</g></g>
<line x1="266.23" y1="185.84" x2="431.43" y2="932.16" style="stroke-dasharray:5;stroke-width:2.00;stroke:rgb(255,58,33)"/>
<!-- Arc:     6    2 -->
<g transform="translate(177.22 337.17)">
<g transform="rotate(532.28)">
<path d="M 0 0 L -3.00 7.50 L 15.00 0 L -3.00 -7.50 z" style="fill:rgb(255,181,40)"/>
</g></g>
<line x1="780.22" y1="255.41" x2="177.22" y2="337.17" style="stroke-width:2.00;stroke:rgb(255,181,40)"/>
<!-- Arc:     6    9 -->
<g transform="translate(780.22 776.34)">
<g transform="rotate(450.00)">
<path d="M 0 0 L -3.00 7.50 L 15.00 0 L -3.00 -7.50 z" style="fill:rgb(255,181,40)"/>
</g></g>
<line x1="780.22" y1="255.41" x2="780.22" y2="776.34" style="stroke-width:2.00;stroke:rgb(255,181,40)"/>
<!-- Arc:     7   11 -->
<g transform="translate(463.45 948.10)">
<g transform="rotate(488.45)">
<path d="M 0 0 L -3.00 7.50 L 15.00 0 L -3.00 -7.50 z" style="fill:rgb(255,58,33)"/>
</g></g>
<line x1="867.06" y1="439.85" x2="463.45" y2="948.10" style="stroke-dasharray:5;stroke-width:2.00;stroke:rgb(255,58,33)"/>
<!-- Arc:     7   13 -->
<g transform="translate(173.69 732.72)">
<g transform="rotate(517.10)">
<path d="M 0 0 L -3.00 7.50 L 15.00 0 L -3.00 -7.50 z" style="fill:rgb(255,58,33)"/>
</g></g>
<line x1="867.06" y1="439.85" x2="173.69" y2="732.72" style="stroke-dasharray:5;stroke-width:2.00;stroke:rgb(255,58,33)"/>
<!-- Arc:     8    5 -->
<g transform="translate(652.55 191.79)">
<g transform="rotate(244.82)">
<path d="M 0 0 L -3.00 7.50 L 15.00 0 L -3.00 -7.50 z" style="fill:rgb(255,181,40)"/>
</g></g>
<line x1="867.06" y1="648.15" x2="652.55" y2="191.79" style="stroke-width:2.00;stroke:rgb(255,181,40)"/>
<!-- Arc:     9   11 -->
<g transform="translate(472.31 962.51)">
<g transform="rotate(517.12)">
<path d="M 0 0 L -3.00 7.50 L 15.00 0 L -3.00 -7.50 z" style="fill:rgb(255,58,33)"/>
</g></g>
<line x1="780.22" y1="832.59" x2="472.31" y2="962.51" style="stroke-dasharray:5;stroke-width:2.00;stroke:rgb(255,58,33)"/>
<!-- Arc:    10    5 -->
<g transform="translate(626.44 193.33)">
<g transform="rotate(270.00)">
<path d="M 0 0 L -3.00 7.50 L 15.00 0 L -3.00 -7.50 z" style="fill:rgb(255,181,40)"/>
</g></g>
<line x1="626.44" y1="950.92" x2="626.44" y2="193.33" style="stroke-width:2.00;stroke:rgb(255,181,40)"/>
<!-- Arc:    10   11 -->
<g transform="translate(475.84 971.43)">
<g transform="rotate(532.24)">
<path d="M 0 0 L -3.00 7.50 L 15.00 0 L -3.00 -7.50 z" style="fill:rgb(255,58,33)"/>
</g></g>
<line x1="626.44" y1="950.92" x2="475.84" y2="971.43" style="stroke-dasharray:5;stroke-width:2.00;stroke:rgb(255,58,33)"/>
<!-- Arc:    11    5 -->
<g transform="translate(614.13 192.95)">
<g transform="rotate(282.47)">
<path d="M 0 0 L -3.00 7.50 L 15.00 0 L -3.00 -7.50 z" style="fill:rgb(255,181,40)"/>
</g></g>
<line x1="440.94" y1="976.03" x2="614.13" y2="192.95" style="stroke-width:2.00;stroke:rgb(255,181,40)"/>
<!-- Arc:    11   12 -->
<g transform="translate(306.39 918.91)">
<g transform="rotate(203.00)">
<path d="M 0 0 L -3.00 7.50 L 15.00 0 L -3.00 -7.50 z" style="fill:rgb(255,181,40)"/>
</g></g>
<line x1="440.94" y1="976.03" x2="306.39" y2="918.91" style="stroke-width:2.00;stroke:rgb(255,181,40)"/>
<!-- Edge:     1    2 -->
<line x1="97.60" y1="544.00" x2="142.32" y2="341.75" style="stroke-width:2.00;stroke:rgb(150,0,168)"/>
<!-- Edge:     1    5 -->
<line x1="97.60" y1="544.00" x2="626.44" y2="137.08" style="stroke-width:2.00;stroke:rgb(150,0,168)"/>
<!-- Edge:     2    5 -->
<line x1="142.32" y1="341.75" x2="626.44" y2="137.08" style="stroke-width:2.00;stroke:rgb(150,0,168)"/>
<!-- Edge:     3    7 -->
<line x1="266.23" y1="185.84" x2="867.06" y2="439.85" style="stroke-width:2.00;stroke:rgb(150,0,168)"/>
<!-- Edge:     3    4 -->
<line x1="266.23" y1="185.84" x2="440.94" y2="111.97" style="stroke-width:2.00;stroke:rgb(150,0,168)"/>
<!-- Edge:     3   12 -->
<line x1="266.23" y1="185.84" x2="266.23" y2="902.16" style="stroke-width:2.00;stroke:rgb(150,0,168)"/>
<!-- Edge:     4    7 -->
<line x1="440.94" y1="111.97" x2="867.06" y2="439.85" style="stroke-width:2.00;stroke:rgb(150,0,168)"/>
<!-- Edge:     4    8 -->
<line x1="440.94" y1="111.97" x2="867.06" y2="648.15" style="stroke-width:2.00;stroke:rgb(150,0,168)"/>
<!-- Edge:     7    8 -->
<line x1="867.06" y1="439.85" x2="867.06" y2="648.15" style="stroke-width:2.00;stroke:rgb(150,0,168)"/>
<!-- Edge:     7   12 -->
<line x1="867.06" y1="439.85" x2="266.23" y2="902.16" style="stroke-width:2.00;stroke:rgb(150,0,168)"/>
<!-- Edge:     8   10 -->
<line x1="867.06" y1="648.15" x2="626.44" y2="950.92" style="stroke-width:2.00;stroke:rgb(150,0,168)"/>
<!-- Edge:     8   12 -->
<line x1="867.06" y1="648.15" x2="266.23" y2="902.16" style="stroke-width:2.00;stroke:rgb(150,0,168)"/>

<!-- Vertex:     1 -->
<g transform="translate(97.60 544.00)">
<path d="M 40.00 40.00 L 0 -40.00 L -40.00 40.00 z" style="fill:rgb(255,255,153);stroke:rgb(102,0,0);stroke-width:0.50;"/>
</g>
<text x="97.60" y="549.00" style="font-family:Arial;font-weight: bold;font-size:15px;fill:rgb(89,89,89);text-anchor:middle;">5 WE</text>
<!-- Vertex:     2 -->
<g transform="translate(142.32 341.75)">
<path d="M 40.00 40.00 L 0 -40.00 L -40.00 40.00 z" style="fill:rgb(255,255,153);stroke:rgb(102,0,0);stroke-width:0.50;"/>
</g>
<text x="142.32" y="346.75" style="font-family:Arial;font-weight: bold;font-size:15px;fill:rgb(89,89,89);text-anchor:middle;">5 HL</text>
<!-- Vertex:     3 -->
<g transform="translate(266.23 185.84)">
<path d="M 40.00 40.00 L 0 -40.00 L -40.00 40.00 z" style="fill:rgb(255,255,153);stroke:rgb(102,0,0);stroke-width:0.50;"/>
</g>
<text x="266.23" y="190.84" style="font-family:Arial;font-weight: bold;font-size:15px;fill:rgb(89,89,89);text-anchor:middle;">5 JA</text>
<!-- Vertex:     4 -->
<g transform="translate(440.94 111.97)">
<path d="M 40.00 40.00 L 0 -40.00 L -40.00 40.00 z" style="fill:rgb(255,255,153);stroke:rgb(102,0,0);stroke-width:0.50;"/>
</g>
<text x="440.94" y="116.97" style="font-family:Arial;font-weight: bold;font-size:15px;fill:rgb(89,89,89);text-anchor:middle;">4 JR</text>
<!-- Vertex:     5 -->
<g transform="translate(626.44 137.08)">
<path d="M 40.00 40.00 L 0 -40.00 L -40.00 40.00 z" style="fill:rgb(255,255,153);stroke:rgb(102,0,0);stroke-width:0.50;"/>
</g>
<text x="626.44" y="142.08" style="font-family:Arial;font-weight: bold;font-size:15px;fill:rgb(89,89,89);text-anchor:middle;">6 CA</text>
<!-- Vertex:     6 -->
<g transform="translate(780.22 255.41)">
<path d="M 40.00 40.00 L 0 -40.00 L -40.00 40.00 z" style="fill:rgb(255,255,153);stroke:rgb(102,0,0);stroke-width:0.50;"/>
</g>
<text x="780.22" y="260.41" style="font-family:Arial;font-weight: bold;font-size:15px;fill:rgb(89,89,89);text-anchor:middle;">3 CC</text>
<!-- Vertex:     7 -->
<g transform="translate(867.06 439.85)">
<path d="M 40.00 40.00 L 0 -40.00 L -40.00 40.00 z" style="fill:rgb(255,255,153);stroke:rgb(102,0,0);stroke-width:0.50;"/>
</g>
<text x="867.06" y="444.85" style="font-family:Arial;font-weight: bold;font-size:15px;fill:rgb(89,89,89);text-anchor:middle;">3 CW</text>
<!-- Vertex:     8 -->
<g transform="translate(867.06 648.15)">
<path d="M 40.00 40.00 L 0 -40.00 L -40.00 40.00 z" style="fill:rgb(255,255,153);stroke:rgb(102,0,0);stroke-width:0.50;"/>
</g>
<text x="867.06" y="653.15" style="font-family:Arial;font-weight: bold;font-size:15px;fill:rgb(89,89,89);text-anchor:middle;">4 MS</text>
<!-- Vertex:     9 -->
<g transform="translate(780.22 832.59)">
<path d="M 40.00 40.00 L 0 -40.00 L -40.00 40.00 z" style="fill:rgb(255,255,153);stroke:rgb(102,0,0);stroke-width:0.50;"/>
</g>
<text x="780.22" y="837.59" style="font-family:Arial;font-weight: bold;font-size:15px;fill:rgb(89,89,89);text-anchor:middle;">4 RN</text>
<!-- Vertex:    10 -->
<g transform="translate(626.44 950.92)">
<path d="M 40.00 40.00 L 0 -40.00 L -40.00 40.00 z" style="fill:rgb(255,255,153);stroke:rgb(102,0,0);stroke-width:0.50;"/>
</g>
<text x="626.44" y="955.92" style="font-family:Arial;font-weight: bold;font-size:15px;fill:rgb(89,89,89);text-anchor:middle;">4 LN</text>
<!-- Vertex:    11 -->
<g transform="translate(440.94 976.03)">
<path d="M 40.00 40.00 L 0 -40.00 L -40.00 40.00 z" style="fill:rgb(255,255,153);stroke:rgb(102,0,0);stroke-width:0.50;"/>
</g>
<text x="440.94" y="981.03" style="font-family:Arial;font-weight: bold;font-size:15px;fill:rgb(89,89,89);text-anchor:middle;">5 RB</text>
<!-- Vertex:    12 -->
<g transform="translate(266.23 902.16)">
<path d="M 40.00 40.00 L 0 -40.00 L -40.00 40.00 z" style="fill:rgb(255,255,153);stroke:rgb(102,0,0);stroke-width:0.50;"/>
</g>
<text x="266.23" y="907.16" style="font-family:Arial;font-weight: bold;font-size:15px;fill:rgb(89,89,89);text-anchor:middle;">4 JR</text>
<!-- Vertex:    13 -->
<g transform="translate(142.32 746.25)">
<path d="M 40.00 40.00 L 0 -40.00 L -40.00 40.00 z" style="fill:rgb(255,255,153);stroke:rgb(102,0,0);stroke-width:0.50;"/>
</g>
<text x="142.32" y="751.25" style="font-family:Arial;font-weight: bold;font-size:15px;fill:rgb(89,89,89);text-anchor:middle;">6 DP</text>
</g>         <!-- Layer Network -->
</svg>
