<?xml version="1.0" encoding="UTF-8"?>
<!-- Title: 1. C:\Users\alex\Documents\pajek\task1\1.net (13) -->
<!-- Creator: Pajek 5.16: http://mrvar.fdv.uni-lj.si/pajek -->
<!-- CreationDate: 12-17-2022, 15:55:08 -->
<svg xml:space="preserve" viewBox="0 0 976 1088" xmlns="http://www.w3.org/2000/svg" xmlns:xlink="http://www.w3.org/1999/xlink" xmlns:inkscape="http://www.inkscape.org/namespaces/inkscape">
<title>1. C:\Users\alex\Documents\pajek\task1\1.net (13)</title>
<g inkscape:groupmode="layer" id="PajekSig" inkscape:label="PajekSignature">
<g transform="translate(3 1070)">
<g transform="scale(0.1)">
<g transform="matrix(1 0 0 -1 0 96)">
<path d="M   7.67  49.98 L  31.76  72.76 L  46.91  78.63
         L  57.23  80.49 M  72.86  65.23 L  65.73  83.25
         L  57.06  75.49 L  56.75  68.65 M  76.27  68.03
         L  75.65  84.50 L  93.92  91.02 L 107.24  74.87
         M  80.29  67.72 L  89.28  84.81 L 104.77  81.70
         L 116.23  73.31 L 121.18  59.33 M  56.75  81.08
         L  71.31  64.30"
         style="fill:none; stroke:saddlebrown; stroke-width:5;"/>
<path d="M  86.18  70.21 L  91.45  73.00 L  95.78  69.58
         M  91.14  60.88 L  96.09  62.75 L  98.26  59.33"
         style="fill:none; stroke:saddlebrown; stroke-width:1.5;"/>
<path d="M  81.07  49.08 L  87.81  49.08 L  93.30  54.38
         L  93.30  60.88 L  93.30  67.39 L  87.81  72.69
         L  81.07  72.69 L  74.33  72.69 L  68.83  67.39
         L  68.83  60.88 L  68.83  54.38 L  74.33  49.08
         L  81.07  49.08 z"
         style="fill:maroon; stroke:saddlebrown; stroke-width:1;"/>
<path d="M  54.63  37.53 L  68.53  43.56 L  75.39  55.85
         L  69.90  65.35 L  64.41  72.86 L  48.60  74.06
         L  34.71  68.04 L  20.81  55.02 L  15.95  40.72
         L  17.44  33.22 L  24.92  28.72 L  40.73  30.51
         L  54.63  37.53 z"
         style="fill:maroon; stroke:saddlebrown; stroke-width:1;" />
<path d="M  77.82  50.63 L 103.84  59.33 L 131.10  43.80
         L 139.46  27.95 L 139.15  15.83 M  35.99   5.27
         L  47.15  32.92 L  61.71  50.01 L  70.07  46.90
         L  82.77  45.04 L  83.39  27.02 L  65.42  12.11
         M  68.52  50.63 L  91.14  49.39 L 103.53  43.17
         L 117.16  22.67 L 115.30   8.38"
         style="fill:none; stroke:saddlebrown; stroke-width:5;"/>
<path d="M  41.57  54.98 L  60.16  64.61 M  52.41  66.17
         L  57.99  57.47"
         style="fill:none; stroke:white; stroke-width:5;"/>
</g>
</g>
<animateMotion dur="20s" path="M3 0 L958 0" begin="120s" fill="freeze"/>
</g>
<g transform="translate(3 1070)">
<g transform="scale(0.1)">
<text x="5" y="140" style="font-family:Brush Script MT;font-size:75px;fill:green;">Pajek</text>
</g>
<animateMotion dur="0.1s" path="M3 0 L958 0" begin="120s" fill="freeze"/>
</g>
</g>      <!-- Layer Signature -->

<g inkscape:groupmode="layer" id="PajekNet" inkscape:label="PajekNetwork">

<!-- Arc:     3    8 -->
<g transform="translate(439.92 733.94)">
<g transform="rotate(431.11)">
<path d="M 0 0 L -3.00 7.50 L 15.00 0 L -3.00 -7.50 z" style="fill:rgb(255,181,40)"/>
</g></g>
<line x1="346.28" y1="460.33" x2="439.92" y2="733.94" style="stroke-width:2.00;stroke:rgb(255,181,40)"/>
<!-- Arc:     3   11 -->
<g transform="translate(479.21 999.61)">
<g transform="rotate(436.15)">
<path d="M 0 0 L -3.00 7.50 L 15.00 0 L -3.00 -7.50 z" style="fill:rgb(255,58,33)"/>
</g></g>
<line x1="346.28" y1="460.33" x2="479.21" y2="999.61" style="stroke-dasharray:5;stroke-width:2.00;stroke:rgb(255,58,33)"/>
<!-- Arc:     6    2 -->
<g transform="translate(322.94 377.06)">
<g transform="rotate(180.57)">
<path d="M 0 0 L -3.00 7.50 L 15.00 0 L -3.00 -7.50 z" style="fill:rgb(255,181,40)"/>
</g></g>
<line x1="628.59" y1="380.11" x2="322.94" y2="377.06" style="stroke-width:2.00;stroke:rgb(255,181,40)"/>
<!-- Arc:     6    9 -->
<g transform="translate(209.49 874.98)">
<g transform="rotate(490.26)">
<path d="M 0 0 L -3.00 7.50 L 15.00 0 L -3.00 -7.50 z" style="fill:rgb(255,181,40)"/>
</g></g>
<line x1="628.59" y1="380.11" x2="209.49" y2="874.98" style="stroke-width:2.00;stroke:rgb(255,181,40)"/>
<!-- Arc:     7   11 -->
<g transform="translate(500.51 1003.87)">
<g transform="rotate(470.82)">
<path d="M 0 0 L -3.00 7.50 L 15.00 0 L -3.00 -7.50 z" style="fill:rgb(255,58,33)"/>
</g></g>
<line x1="818.57" y1="167.33" x2="500.51" y2="1003.87" style="stroke-dasharray:5;stroke-width:2.00;stroke:rgb(255,58,33)"/>
<!-- Arc:     7   13 -->
<g transform="translate(802.78 844.83)">
<g transform="rotate(451.34)">
<path d="M 0 0 L -3.00 7.50 L 15.00 0 L -3.00 -7.50 z" style="fill:rgb(255,58,33)"/>
</g></g>
<line x1="818.57" y1="167.33" x2="802.78" y2="844.83" style="stroke-dasharray:5;stroke-width:2.00;stroke:rgb(255,58,33)"/>
<!-- Arc:     8    5 -->
<g transform="translate(572.09 503.45)">
<g transform="rotate(294.57)">
<path d="M 0 0 L -3.00 7.50 L 15.00 0 L -3.00 -7.50 z" style="fill:rgb(255,181,40)"/>
</g></g>
<line x1="451.30" y1="767.69" x2="572.09" y2="503.45" style="stroke-width:2.00;stroke:rgb(255,181,40)"/>
<!-- Arc:     9   11 -->
<g transform="translate(460.68 1023.90)">
<g transform="rotate(384.73)">
<path d="M 0 0 L -3.00 7.50 L 15.00 0 L -3.00 -7.50 z" style="fill:rgb(255,58,33)"/>
</g></g>
<line x1="189.49" y1="899.01" x2="460.68" y2="1023.90" style="stroke-dasharray:5;stroke-width:2.00;stroke:rgb(255,58,33)"/>
<!-- Arc:    10    5 -->
<g transform="translate(560.62 501.75)">
<g transform="rotate(306.45)">
<path d="M 0 0 L -3.00 7.50 L 15.00 0 L -3.00 -7.50 z" style="fill:rgb(255,181,40)"/>
</g></g>
<line x1="220.38" y1="962.44" x2="560.62" y2="501.75" style="stroke-width:2.00;stroke:rgb(255,181,40)"/>
<!-- Arc:    10   11 -->
<g transform="translate(458.86 1028.22)">
<g transform="rotate(375.42)">
<path d="M 0 0 L -3.00 7.50 L 15.00 0 L -3.00 -7.50 z" style="fill:rgb(255,58,33)"/>
</g></g>
<line x1="220.38" y1="962.44" x2="458.86" y2="1028.22" style="stroke-dasharray:5;stroke-width:2.00;stroke:rgb(255,58,33)"/>
<!-- Arc:    11    5 -->
<g transform="translate(584.52 504.66)">
<g transform="rotate(280.29)">
<path d="M 0 0 L -3.00 7.50 L 15.00 0 L -3.00 -7.50 z" style="fill:rgb(255,181,40)"/>
</g></g>
<line x1="488.00" y1="1036.21" x2="584.52" y2="504.66" style="stroke-width:2.00;stroke:rgb(255,181,40)"/>
<!-- Arc:    11   12 -->
<g transform="translate(481.68 526.28)">
<g transform="rotate(269.29)">
<path d="M 0 0 L -3.00 7.50 L 15.00 0 L -3.00 -7.50 z" style="fill:rgb(255,181,40)"/>
</g></g>
<line x1="488.00" y1="1036.21" x2="481.68" y2="526.28" style="stroke-width:2.00;stroke:rgb(255,181,40)"/>
<!-- Edge:     1    2 -->
<line x1="157.43" y1="167.33" x2="291.37" y2="376.90" style="stroke-width:2.00;stroke:rgb(150,0,168)"/>
<!-- Edge:     1    5 -->
<line x1="157.43" y1="167.33" x2="592.94" y2="458.05" style="stroke-width:2.00;stroke:rgb(150,0,168)"/>
<!-- Edge:     2    5 -->
<line x1="291.37" y1="376.90" x2="592.94" y2="458.05" style="stroke-width:2.00;stroke:rgb(150,0,168)"/>
<!-- Edge:     3    7 -->
<line x1="346.28" y1="460.33" x2="818.57" y2="167.33" style="stroke-width:2.00;stroke:rgb(150,0,168)"/>
<!-- Edge:     3    4 -->
<line x1="346.28" y1="460.33" x2="727.42" y2="972.69" style="stroke-width:2.00;stroke:rgb(150,0,168)"/>
<!-- Edge:     3   12 -->
<line x1="346.28" y1="460.33" x2="480.87" y2="479.40" style="stroke-width:2.00;stroke:rgb(150,0,168)"/>
<!-- Edge:     4    7 -->
<line x1="727.42" y1="972.69" x2="818.57" y2="167.33" style="stroke-width:2.00;stroke:rgb(150,0,168)"/>
<!-- Edge:     4    8 -->
<line x1="727.42" y1="972.69" x2="451.30" y2="767.69" style="stroke-width:2.00;stroke:rgb(150,0,168)"/>
<!-- Edge:     7    8 -->
<line x1="818.57" y1="167.33" x2="451.30" y2="767.69" style="stroke-width:2.00;stroke:rgb(150,0,168)"/>
<!-- Edge:     7   12 -->
<line x1="818.57" y1="167.33" x2="480.87" y2="479.40" style="stroke-width:2.00;stroke:rgb(150,0,168)"/>
<!-- Edge:     8   10 -->
<line x1="451.30" y1="767.69" x2="220.38" y2="962.44" style="stroke-width:2.00;stroke:rgb(150,0,168)"/>
<!-- Edge:     8   12 -->
<line x1="451.30" y1="767.69" x2="480.87" y2="479.40" style="stroke-width:2.00;stroke:rgb(150,0,168)"/>

<!-- Vertex:     1 -->
<g transform="translate(157.43 167.33)">
<path d="M 30.63 30.63 L 0 -30.63 L -30.63 30.63 z" style="fill:rgb(255,255,153);stroke:rgb(102,0,0);stroke-width:0.50;"/>
</g>
<text x="157.43" y="171.67" style="font-family:Arial;font-weight: bold;font-size:13px;fill:rgb(89,89,89);text-anchor:middle;">5 WE</text>
<!-- Vertex:     2 -->
<g transform="translate(291.37 376.90)">
<path d="M 30.63 30.63 L 0 -30.63 L -30.63 30.63 z" style="fill:rgb(255,255,153);stroke:rgb(102,0,0);stroke-width:0.50;"/>
</g>
<text x="291.37" y="381.24" style="font-family:Arial;font-weight: bold;font-size:13px;fill:rgb(89,89,89);text-anchor:middle;">5 HL</text>
<!-- Vertex:     3 -->
<g transform="translate(346.28 460.33)">
<path d="M 30.63 30.63 L 0 -30.63 L -30.63 30.63 z" style="fill:rgb(255,255,153);stroke:rgb(102,0,0);stroke-width:0.50;"/>
</g>
<text x="346.28" y="464.67" style="font-family:Arial;font-weight: bold;font-size:13px;fill:rgb(89,89,89);text-anchor:middle;">5 JA</text>
<!-- Vertex:     4 -->
<g transform="translate(727.42 972.69)">
<path d="M 30.63 30.63 L 0 -30.63 L -30.63 30.63 z" style="fill:rgb(255,255,153);stroke:rgb(102,0,0);stroke-width:0.50;"/>
</g>
<text x="727.42" y="977.02" style="font-family:Arial;font-weight: bold;font-size:13px;fill:rgb(89,89,89);text-anchor:middle;">4 JR</text>
<!-- Vertex:     5 -->
<g transform="translate(592.94 458.05)">
<path d="M 30.63 30.63 L 0 -30.63 L -30.63 30.63 z" style="fill:rgb(255,255,153);stroke:rgb(102,0,0);stroke-width:0.50;"/>
</g>
<text x="592.94" y="462.38" style="font-family:Arial;font-weight: bold;font-size:13px;fill:rgb(89,89,89);text-anchor:middle;">6 CA</text>
<!-- Vertex:     6 -->
<g transform="translate(628.59 380.11)">
<path d="M 30.63 30.63 L 0 -30.63 L -30.63 30.63 z" style="fill:rgb(255,255,153);stroke:rgb(102,0,0);stroke-width:0.50;"/>
</g>
<text x="628.59" y="384.44" style="font-family:Arial;font-weight: bold;font-size:13px;fill:rgb(89,89,89);text-anchor:middle;">3 CC</text>
<!-- Vertex:     7 -->
<g transform="translate(818.57 167.33)">
<path d="M 30.63 30.63 L 0 -30.63 L -30.63 30.63 z" style="fill:rgb(255,255,153);stroke:rgb(102,0,0);stroke-width:0.50;"/>
</g>
<text x="818.57" y="171.67" style="font-family:Arial;font-weight: bold;font-size:13px;fill:rgb(89,89,89);text-anchor:middle;">3 CW</text>
<!-- Vertex:     8 -->
<g transform="translate(451.30 767.69)">
<path d="M 30.63 30.63 L 0 -30.63 L -30.63 30.63 z" style="fill:rgb(255,255,153);stroke:rgb(102,0,0);stroke-width:0.50;"/>
</g>
<text x="451.30" y="772.03" style="font-family:Arial;font-weight: bold;font-size:13px;fill:rgb(89,89,89);text-anchor:middle;">4 MS</text>
<!-- Vertex:     9 -->
<g transform="translate(189.49 899.01)">
<path d="M 30.63 30.63 L 0 -30.63 L -30.63 30.63 z" style="fill:rgb(255,255,153);stroke:rgb(102,0,0);stroke-width:0.50;"/>
</g>
<text x="189.49" y="903.35" style="font-family:Arial;font-weight: bold;font-size:13px;fill:rgb(89,89,89);text-anchor:middle;">4 RN</text>
<!-- Vertex:    10 -->
<g transform="translate(220.38 962.44)">
<path d="M 30.63 30.63 L 0 -30.63 L -30.63 30.63 z" style="fill:rgb(255,255,153);stroke:rgb(102,0,0);stroke-width:0.50;"/>
</g>
<text x="220.38" y="966.78" style="font-family:Arial;font-weight: bold;font-size:13px;fill:rgb(89,89,89);text-anchor:middle;">4 LN</text>
<!-- Vertex:    11 -->
<g transform="translate(488.00 1036.21)">
<path d="M 30.63 30.63 L 0 -30.63 L -30.63 30.63 z" style="fill:rgb(255,255,153);stroke:rgb(102,0,0);stroke-width:0.50;"/>
</g>
<text x="488.00" y="1040.54" style="font-family:Arial;font-weight: bold;font-size:13px;fill:rgb(89,89,89);text-anchor:middle;">5 RB</text>
<!-- Vertex:    12 -->
<g transform="translate(480.87 479.40)">
<path d="M 30.63 30.63 L 0 -30.63 L -30.63 30.63 z" style="fill:rgb(255,255,153);stroke:rgb(102,0,0);stroke-width:0.50;"/>
</g>
<text x="480.87" y="483.74" style="font-family:Arial;font-weight: bold;font-size:13px;fill:rgb(89,89,89);text-anchor:middle;">4 JR</text>
<!-- Vertex:    13 -->
<g transform="translate(801.79 890.47)">
<path d="M 30.63 30.63 L 0 -30.63 L -30.63 30.63 z" style="fill:rgb(255,255,153);stroke:rgb(102,0,0);stroke-width:0.50;"/>
</g>
<text x="801.79" y="894.81" style="font-family:Arial;font-weight: bold;font-size:13px;fill:rgb(89,89,89);text-anchor:middle;">6 DP</text>
</g>         <!-- Layer Network -->
</svg>
