<?xml version="1.0" encoding="UTF-8"?>
<!-- Title: 8. Extracting N7 according to C15 [1-*] (16) -->
<!-- Creator: Pajek 5.16: http://mrvar.fdv.uni-lj.si/pajek -->
<!-- CreationDate: 12-17-2022, 9:09:19 PM -->
<svg xml:space="preserve" viewBox="0 0 1115 619" xmlns="http://www.w3.org/2000/svg" xmlns:xlink="http://www.w3.org/1999/xlink" xmlns:inkscape="http://www.inkscape.org/namespaces/inkscape">
<title>8. Extracting N7 according to C15 [1-*] (16)</title>
<g inkscape:groupmode="layer" id="PajekSig" inkscape:label="PajekSignature">
<g transform="translate(3 601)">
<g transform="scale(0.1)">
<g transform="matrix(1 0 0 -1 0 96)">
<path d="M   7.67  49.98 L  31.76  72.76 L  46.91  78.63
         L  57.23  80.49 M  72.86  65.23 L  65.73  83.25
         L  57.06  75.49 L  56.75  68.65 M  76.27  68.03
         L  75.65  84.50 L  93.92  91.02 L 107.24  74.87
         M  80.29  67.72 L  89.28  84.81 L 104.77  81.70
         L 116.23  73.31 L 121.18  59.33 M  56.75  81.08
         L  71.31  64.30"
         style="fill:none; stroke:saddlebrown; stroke-width:5;"/>
<path d="M  86.18  70.21 L  91.45  73.00 L  95.78  69.58
         M  91.14  60.88 L  96.09  62.75 L  98.26  59.33"
         style="fill:none; stroke:saddlebrown; stroke-width:1.5;"/>
<path d="M  81.07  49.08 L  87.81  49.08 L  93.30  54.38
         L  93.30  60.88 L  93.30  67.39 L  87.81  72.69
         L  81.07  72.69 L  74.33  72.69 L  68.83  67.39
         L  68.83  60.88 L  68.83  54.38 L  74.33  49.08
         L  81.07  49.08 z"
         style="fill:maroon; stroke:saddlebrown; stroke-width:1;"/>
<path d="M  54.63  37.53 L  68.53  43.56 L  75.39  55.85
         L  69.90  65.35 L  64.41  72.86 L  48.60  74.06
         L  34.71  68.04 L  20.81  55.02 L  15.95  40.72
         L  17.44  33.22 L  24.92  28.72 L  40.73  30.51
         L  54.63  37.53 z"
         style="fill:maroon; stroke:saddlebrown; stroke-width:1;" />
<path d="M  77.82  50.63 L 103.84  59.33 L 131.10  43.80
         L 139.46  27.95 L 139.15  15.83 M  35.99   5.27
         L  47.15  32.92 L  61.71  50.01 L  70.07  46.90
         L  82.77  45.04 L  83.39  27.02 L  65.42  12.11
         M  68.52  50.63 L  91.14  49.39 L 103.53  43.17
         L 117.16  22.67 L 115.30   8.38"
         style="fill:none; stroke:saddlebrown; stroke-width:5;"/>
<path d="M  41.57  54.98 L  60.16  64.61 M  52.41  66.17
         L  57.99  57.47"
         style="fill:none; stroke:white; stroke-width:5;"/>
</g>
</g>
<animateMotion dur="20s" path="M3 0 L1097 0" begin="120s" fill="freeze"/>
</g>
<g transform="translate(3 601)">
<g transform="scale(0.1)">
<text x="5" y="140" style="font-family:Brush Script MT;font-size:75px;fill:green;">Pajek</text>
</g>
<animateMotion dur="0.1s" path="M3 0 L1097 0" begin="120s" fill="freeze"/>
</g>
</g>      <!-- Layer Signature -->

<g inkscape:groupmode="layer" id="PajekNet" inkscape:label="PajekNetwork">

<g transform="translate(677.49 374.42)">
<g transform="rotate(-28.07)">
<text x="0" y="0" style="font-family:Arial;font-size:15.00px;fill:rgb(0,0,0);text-anchor:middle;">5</text>
</g></g>
<!-- Edge:     1    2 -->
<line x1="594.99" y1="429.75" x2="769.40" y2="336.73" style="stroke-width:2.00;stroke:rgb(204,204,255)"/>
<g transform="translate(827.53 268.72)">
<g transform="rotate(-43.06)">
<text x="0" y="0" style="font-family:Arial;font-size:15.00px;fill:rgb(0,0,0);text-anchor:middle;">4</text>
</g></g>
<!-- Edge:     2    3 -->
<line x1="769.40" y1="336.73" x2="899.32" y2="215.31" style="stroke-width:2.00;stroke:rgb(204,204,255)"/>
<g transform="translate(917.60 126.75)">
<g transform="rotate(-71.99)">
<text x="0" y="0" style="font-family:Arial;font-size:15.00px;fill:rgb(0,0,0);text-anchor:middle;">4</text>
</g></g>
<!-- Edge:     3    4 -->
<line x1="899.32" y1="215.31" x2="954.91" y2="44.36" style="stroke-width:2.00;stroke:rgb(204,204,255)"/>
<g transform="translate(956.83 173.74)">
<g transform="rotate(-27.76)">
<text x="0" y="0" style="font-family:Arial;font-size:15.00px;fill:rgb(0,0,0);text-anchor:middle;">4</text>
</g></g>
<!-- Edge:     3    6 -->
<line x1="899.32" y1="215.31" x2="1023.65" y2="149.87" style="stroke-width:2.00;stroke:rgb(204,204,255)"/>
<g transform="translate(997.66 91.66)">
<g transform="rotate(56.91)">
<text x="0" y="0" style="font-family:Arial;font-size:15.00px;fill:rgb(0,0,0);text-anchor:middle;">4</text>
</g></g>
<!-- Edge:     4    6 -->
<line x1="954.91" y1="44.36" x2="1023.65" y2="149.87" style="stroke-width:2.00;stroke:rgb(204,204,255)"/>
<g transform="translate(910.68 503.71)">
<g transform="rotate(90.00)">
<text x="0" y="0" style="font-family:Arial;font-size:15.00px;fill:rgb(0,0,0);text-anchor:middle;">3</text>
</g></g>
<!-- Edge:     5    7 -->
<line x1="900.68" y1="446.41" x2="900.68" y2="561.02" style="stroke-width:2.00;stroke:rgb(204,204,255)"/>
<g transform="translate(233.51 486.74)">
<g transform="rotate(103.92)">
<text x="0" y="0" style="font-family:Arial;font-size:15.00px;fill:rgb(0,0,0);text-anchor:middle;">7</text>
</g></g>
<!-- Edge:     8    9 -->
<line x1="243.43" y1="405.15" x2="204.17" y2="563.52" style="stroke-width:2.00;stroke:rgb(204,204,255)"/>
<g transform="translate(151.00 449.97)">
<g transform="rotate(159.72)">
<text x="0" y="0" style="font-family:Arial;font-size:15.00px;fill:rgb(0,0,0);text-anchor:middle;">5</text>
</g></g>
<!-- Edge:     8   10 -->
<line x1="243.43" y1="405.15" x2="51.64" y2="476.03" style="stroke-width:2.00;stroke:rgb(204,204,255)"/>
<g transform="translate(204.60 314.80)">
<g transform="rotate(252.58)">
<text x="0" y="0" style="font-family:Arial;font-size:15.00px;fill:rgb(0,0,0);text-anchor:middle;">7</text>
</g></g>
<!-- Edge:     8   12 -->
<line x1="243.43" y1="405.15" x2="184.85" y2="218.46" style="stroke-width:2.00;stroke:rgb(204,204,255)"/>
<g transform="translate(127.52 361.13)">
<g transform="rotate(205.42)">
<text x="0" y="0" style="font-family:Arial;font-size:15.00px;fill:rgb(0,0,0);text-anchor:middle;">5</text>
</g></g>
<!-- Edge:     8   13 -->
<line x1="243.43" y1="405.15" x2="20.20" y2="299.04" style="stroke-width:2.00;stroke:rgb(204,204,255)"/>
<g transform="translate(298.56 365.75)">
<g transform="rotate(-27.06)">
<text x="0" y="0" style="font-family:Arial;font-size:15.00px;fill:rgb(0,0,0);text-anchor:middle;">5</text>
</g></g>
<!-- Edge:     8   14 -->
<line x1="243.43" y1="405.15" x2="362.79" y2="344.16" style="stroke-width:2.00;stroke:rgb(204,204,255)"/>
<g transform="translate(122.93 528.45)">
<g transform="rotate(209.84)">
<text x="0" y="0" style="font-family:Arial;font-size:15.00px;fill:rgb(0,0,0);text-anchor:middle;">5</text>
</g></g>
<!-- Edge:     9   10 -->
<line x1="204.17" y1="563.52" x2="51.64" y2="476.03" style="stroke-width:2.00;stroke:rgb(204,204,255)"/>
<g transform="translate(264.82 209.49)">
<g transform="rotate(166.46)">
<text x="0" y="0" style="font-family:Arial;font-size:15.00px;fill:rgb(0,0,0);text-anchor:middle;">5</text>
</g></g>
<!-- Edge:    11   12 -->
<line x1="340.11" y1="181.07" x2="184.85" y2="218.46" style="stroke-width:2.00;stroke:rgb(204,204,255)"/>
<g transform="translate(361.35 261.24)">
<g transform="rotate(82.08)">
<text x="0" y="0" style="font-family:Arial;font-size:15.00px;fill:rgb(0,0,0);text-anchor:middle;">5</text>
</g></g>
<!-- Edge:    11   14 -->
<line x1="340.11" y1="181.07" x2="362.79" y2="344.16" style="stroke-width:2.00;stroke:rgb(204,204,255)"/>
<g transform="translate(281.98 105.04)">
<g transform="rotate(238.60)">
<text x="0" y="0" style="font-family:Arial;font-size:15.00px;fill:rgb(0,0,0);text-anchor:middle;">5</text>
</g></g>
<!-- Edge:    11   15 -->
<line x1="340.11" y1="181.07" x2="240.93" y2="18.59" style="stroke-width:2.00;stroke:rgb(204,204,255)"/>
<g transform="translate(446.43 127.40)">
<g transform="rotate(-21.97)">
<text x="0" y="0" style="font-family:Arial;font-size:15.00px;fill:rgb(0,0,0);text-anchor:middle;">5</text>
</g></g>
<!-- Edge:    11   16 -->
<line x1="340.11" y1="181.07" x2="560.23" y2="92.28" style="stroke-width:2.00;stroke:rgb(204,204,255)"/>
<g transform="translate(279.59 273.15)">
<g transform="rotate(35.24)">
<text x="0" y="0" style="font-family:Arial;font-size:15.00px;fill:rgb(0,0,0);text-anchor:middle;">5</text>
</g></g>
<!-- Edge:    12   14 -->
<line x1="184.85" y1="218.46" x2="362.79" y2="344.16" style="stroke-width:2.00;stroke:rgb(204,204,255)"/>

<!-- Vertex:     1 -->
<ellipse cx="594.99" cy="429.75" rx="10.00" ry="10.00" style="fill:rgb(127,255,0);stroke:rgb(127,0,255);stroke-width:0.50;"/>
<text x="600.16" y="449.07" style="font-family:Arial;font-weight: bold;font-size:12px;fill:rgb(0,0,0)">[11.00] Madero, Francisco</text>
<!-- Vertex:     2 -->
<ellipse cx="769.40" cy="336.73" rx="10.00" ry="10.00" style="fill:rgb(255,255,0);stroke:rgb(127,0,255);stroke-width:0.50;"/>
<text x="774.58" y="356.05" style="font-family:Arial;font-weight: bold;font-size:12px;fill:rgb(0,0,0)">[13.00] Carranza, Venustiano</text>
<!-- Vertex:     3 -->
<ellipse cx="899.32" cy="215.31" rx="10.00" ry="10.00" style="fill:rgb(255,255,0);stroke:rgb(127,0,255);stroke-width:0.50;"/>
<text x="904.49" y="234.63" style="font-family:Arial;font-weight: bold;font-size:12px;fill:rgb(0,0,0)">[20.00] Obregon, Alvaro</text>
<!-- Vertex:     4 -->
<ellipse cx="954.91" cy="44.36" rx="10.00" ry="10.00" style="fill:rgb(255,255,0);stroke:rgb(127,0,255);stroke-width:0.50;"/>
<text x="960.09" y="63.68" style="font-family:Arial;font-weight: bold;font-size:12px;fill:rgb(0,0,0)">[24.00] Calles, Plutarco E.</text>
<!-- Vertex:     5 -->
<ellipse cx="900.68" cy="446.41" rx="10.00" ry="10.00" style="fill:rgb(255,255,0);stroke:rgb(127,0,255);stroke-width:0.50;"/>
<text x="905.86" y="465.73" style="font-family:Arial;font-weight: bold;font-size:12px;fill:rgb(0,0,0)">[18.00] Aguilar, Candido</text>
<!-- Vertex:     6 -->
<ellipse cx="1023.65" cy="149.87" rx="10.00" ry="10.00" style="fill:rgb(127,255,0);stroke:rgb(127,0,255);stroke-width:0.50;"/>
<text x="1028.83" y="169.19" style="font-family:Arial;font-weight: bold;font-size:12px;fill:rgb(0,0,0)">[28.00] Portes Gil, Emilio</text>
<!-- Vertex:     7 -->
<ellipse cx="900.68" cy="561.02" rx="10.00" ry="10.00" style="fill:rgb(255,255,0);stroke:rgb(127,0,255);stroke-width:0.50;"/>
<text x="905.86" y="580.34" style="font-family:Arial;font-weight: bold;font-size:12px;fill:rgb(0,0,0)">[27.00] Aleman Gonzalez, Miguel</text>
<!-- Vertex:     8 -->
<ellipse cx="243.43" cy="405.15" rx="10.00" ry="10.00" style="fill:rgb(255,255,0);stroke:rgb(127,0,255);stroke-width:0.50;"/>
<text x="248.61" y="424.47" style="font-family:Arial;font-weight: bold;font-size:12px;fill:rgb(0,0,0)">[46.00] Aleman Valdes, Miguel</text>
<!-- Vertex:     9 -->
<ellipse cx="204.17" cy="563.52" rx="10.00" ry="10.00" style="fill:rgb(127,255,0);stroke:rgb(127,0,255);stroke-width:0.50;"/>
<text x="209.34" y="582.84" style="font-family:Arial;font-weight: bold;font-size:12px;fill:rgb(0,0,0)">[52.00] Ruiz Cortines, Adolfo</text>
<!-- Vertex:    10 -->
<ellipse cx="51.64" cy="476.03" rx="10.00" ry="10.00" style="fill:rgb(127,255,0);stroke:rgb(127,0,255);stroke-width:0.50;"/>
<text x="56.82" y="495.34" style="font-family:Arial;font-weight: bold;font-size:12px;fill:rgb(0,0,0)">[58.00] Lopez Mateos, Adolfo</text>
<!-- Vertex:    11 -->
<ellipse cx="340.11" cy="181.07" rx="10.00" ry="10.00" style="fill:rgb(127,255,0);stroke:rgb(127,0,255);stroke-width:0.50;"/>
<text x="345.28" y="200.39" style="font-family:Arial;font-weight: bold;font-size:12px;fill:rgb(0,0,0)">[65.00] Margain, Hugo B.</text>
<!-- Vertex:    12 -->
<ellipse cx="184.85" cy="218.46" rx="10.00" ry="10.00" style="fill:rgb(127,255,0);stroke:rgb(127,0,255);stroke-width:0.50;"/>
<text x="190.02" y="237.78" style="font-family:Arial;font-weight: bold;font-size:12px;fill:rgb(0,0,0)">[52.00] Carrillo Flores, Antonio</text>
<!-- Vertex:    13 -->
<ellipse cx="20.20" cy="299.04" rx="10.00" ry="10.00" style="fill:rgb(127,255,0);stroke:rgb(127,0,255);stroke-width:0.50;"/>
<text x="25.38" y="318.36" style="font-family:Arial;font-weight: bold;font-size:12px;fill:rgb(0,0,0)">[65.00] Diaz Ordaz, Gustavo</text>
<!-- Vertex:    14 -->
<ellipse cx="362.79" cy="344.16" rx="10.00" ry="10.00" style="fill:rgb(127,255,0);stroke:rgb(127,0,255);stroke-width:0.50;"/>
<text x="367.97" y="363.48" style="font-family:Arial;font-weight: bold;font-size:12px;fill:rgb(0,0,0)">[52.00] Ortiz Mena, Antonio</text>
<!-- Vertex:    15 -->
<ellipse cx="240.93" cy="18.59" rx="10.00" ry="10.00" style="fill:rgb(127,255,0);stroke:rgb(127,0,255);stroke-width:0.50;"/>
<text x="246.10" y="37.91" style="font-family:Arial;font-weight: bold;font-size:12px;fill:rgb(0,0,0)">[56.00] Salinas Lozano, Raul</text>
<!-- Vertex:    16 -->
<ellipse cx="560.23" cy="92.28" rx="10.00" ry="10.00" style="fill:rgb(127,255,0);stroke:rgb(127,0,255);stroke-width:0.50;"/>
<text x="565.41" y="111.60" style="font-family:Arial;font-weight: bold;font-size:12px;fill:rgb(0,0,0)">[82.00] De la Madrid, Miguel</text>
</g>         <!-- Layer Network -->
</svg>
