<?xml version="1.0" encoding="UTF-8"?>
<!-- Title: 5. Extracting N4 according to C10 [1-*] (20) -->
<!-- Creator: Pajek 5.16: http://mrvar.fdv.uni-lj.si/pajek -->
<!-- CreationDate: 12-17-2022, 9:12:00 PM -->
<svg xml:space="preserve" viewBox="0 0 1190 740" xmlns="http://www.w3.org/2000/svg" xmlns:xlink="http://www.w3.org/1999/xlink" xmlns:inkscape="http://www.inkscape.org/namespaces/inkscape">
<title>5. Extracting N4 according to C10 [1-*] (20)</title>
<g inkscape:groupmode="layer" id="PajekSig" inkscape:label="PajekSignature">
<g transform="translate(3 722)">
<g transform="scale(0.1)">
<g transform="matrix(1 0 0 -1 0 96)">
<path d="M   7.67  49.98 L  31.76  72.76 L  46.91  78.63
         L  57.23  80.49 M  72.86  65.23 L  65.73  83.25
         L  57.06  75.49 L  56.75  68.65 M  76.27  68.03
         L  75.65  84.50 L  93.92  91.02 L 107.24  74.87
         M  80.29  67.72 L  89.28  84.81 L 104.77  81.70
         L 116.23  73.31 L 121.18  59.33 M  56.75  81.08
         L  71.31  64.30"
         style="fill:none; stroke:saddlebrown; stroke-width:5;"/>
<path d="M  86.18  70.21 L  91.45  73.00 L  95.78  69.58
         M  91.14  60.88 L  96.09  62.75 L  98.26  59.33"
         style="fill:none; stroke:saddlebrown; stroke-width:1.5;"/>
<path d="M  81.07  49.08 L  87.81  49.08 L  93.30  54.38
         L  93.30  60.88 L  93.30  67.39 L  87.81  72.69
         L  81.07  72.69 L  74.33  72.69 L  68.83  67.39
         L  68.83  60.88 L  68.83  54.38 L  74.33  49.08
         L  81.07  49.08 z"
         style="fill:maroon; stroke:saddlebrown; stroke-width:1;"/>
<path d="M  54.63  37.53 L  68.53  43.56 L  75.39  55.85
         L  69.90  65.35 L  64.41  72.86 L  48.60  74.06
         L  34.71  68.04 L  20.81  55.02 L  15.95  40.72
         L  17.44  33.22 L  24.92  28.72 L  40.73  30.51
         L  54.63  37.53 z"
         style="fill:maroon; stroke:saddlebrown; stroke-width:1;" />
<path d="M  77.82  50.63 L 103.84  59.33 L 131.10  43.80
         L 139.46  27.95 L 139.15  15.83 M  35.99   5.27
         L  47.15  32.92 L  61.71  50.01 L  70.07  46.90
         L  82.77  45.04 L  83.39  27.02 L  65.42  12.11
         M  68.52  50.63 L  91.14  49.39 L 103.53  43.17
         L 117.16  22.67 L 115.30   8.38"
         style="fill:none; stroke:saddlebrown; stroke-width:5;"/>
<path d="M  41.57  54.98 L  60.16  64.61 M  52.41  66.17
         L  57.99  57.47"
         style="fill:none; stroke:white; stroke-width:5;"/>
</g>
</g>
<animateMotion dur="20s" path="M3 0 L1172 0" begin="120s" fill="freeze"/>
</g>
<g transform="translate(3 722)">
<g transform="scale(0.1)">
<text x="5" y="140" style="font-family:Brush Script MT;font-size:75px;fill:green;">Pajek</text>
</g>
<animateMotion dur="0.1s" path="M3 0 L1172 0" begin="120s" fill="freeze"/>
</g>
</g>      <!-- Layer Signature -->

<g inkscape:groupmode="layer" id="PajekNet" inkscape:label="PajekNetwork">

<g transform="translate(1012.15 127.86)">
<g transform="rotate(139.94)">
<text x="0" y="0" style="font-family:Arial;font-size:15.00px;fill:rgb(0,0,0);text-anchor:middle;">5</text>
</g></g>
<!-- Edge:     1    2 -->
<line x1="1052.93" y1="80.51" x2="958.50" y2="159.91" style="stroke-width:2.00;stroke:rgb(204,204,255)"/>
<g transform="translate(998.97 185.27)">
<g transform="rotate(44.16)">
<text x="0" y="0" style="font-family:Arial;font-size:15.00px;fill:rgb(0,0,0);text-anchor:middle;">4</text>
</g></g>
<!-- Edge:     2    3 -->
<line x1="958.50" y1="159.91" x2="1025.51" y2="224.98" style="stroke-width:2.00;stroke:rgb(204,204,255)"/>
<g transform="translate(1041.54 277.33)">
<g transform="rotate(83.50)">
<text x="0" y="0" style="font-family:Arial;font-size:15.00px;fill:rgb(0,0,0);text-anchor:middle;">4</text>
</g></g>
<!-- Edge:     3    4 -->
<line x1="1025.51" y1="224.98" x2="1037.70" y2="331.95" style="stroke-width:2.00;stroke:rgb(204,204,255)"/>
<g transform="translate(983.04 271.92)">
<g transform="rotate(141.23)">
<text x="0" y="0" style="font-family:Arial;font-size:15.00px;fill:rgb(0,0,0);text-anchor:middle;">4</text>
</g></g>
<!-- Edge:     3    6 -->
<line x1="1025.51" y1="224.98" x2="928.04" y2="303.28" style="stroke-width:2.00;stroke:rgb(204,204,255)"/>
<g transform="translate(980.34 327.29)">
<g transform="rotate(194.65)">
<text x="0" y="0" style="font-family:Arial;font-size:15.00px;fill:rgb(0,0,0);text-anchor:middle;">4</text>
</g></g>
<!-- Edge:     4    6 -->
<line x1="1037.70" y1="331.95" x2="928.04" y2="303.28" style="stroke-width:2.00;stroke:rgb(204,204,255)"/>
<g transform="translate(115.60 606.56)">
<g transform="rotate(90.00)">
<text x="0" y="0" style="font-family:Arial;font-size:15.00px;fill:rgb(0,0,0);text-anchor:middle;">3</text>
</g></g>
<!-- Edge:     5    7 -->
<line x1="105.60" y1="534.87" x2="105.60" y2="678.24" style="stroke-width:2.00;stroke:rgb(204,204,255)"/>
<g transform="translate(594.35 297.60)">
<g transform="rotate(148.57)">
<text x="0" y="0" style="font-family:Arial;font-size:15.00px;fill:rgb(0,0,0);text-anchor:middle;">4</text>
</g></g>
<!-- Edge:     8   10 -->
<line x1="682.78" y1="231.85" x2="495.49" y2="346.29" style="stroke-width:2.00;stroke:rgb(204,204,255)"/>
<g transform="translate(592.19 381.34)">
<g transform="rotate(194.35)">
<text x="0" y="0" style="font-family:Arial;font-size:15.00px;fill:rgb(0,0,0);text-anchor:middle;">4</text>
</g></g>
<!-- Edge:     9   10 -->
<line x1="693.84" y1="397.01" x2="495.49" y2="346.29" style="stroke-width:2.00;stroke:rgb(204,204,255)"/>
<g transform="translate(516.24 426.16)">
<g transform="rotate(82.40)">
<text x="0" y="0" style="font-family:Arial;font-size:15.00px;fill:rgb(0,0,0);text-anchor:middle;">7</text>
</g></g>
<!-- Edge:    10   12 -->
<line x1="495.49" y1="346.29" x2="517.17" y2="508.69" style="stroke-width:2.00;stroke:rgb(204,204,255)"/>
<g transform="translate(428.21 447.87)">
<g transform="rotate(128.23)">
<text x="0" y="0" style="font-family:Arial;font-size:15.00px;fill:rgb(0,0,0);text-anchor:middle;">5</text>
</g></g>
<!-- Edge:    10   13 -->
<line x1="495.49" y1="346.29" x2="345.22" y2="537.08" style="stroke-width:2.00;stroke:rgb(204,204,255)"/>
<g transform="translate(384.90 294.10)">
<g transform="rotate(209.95)">
<text x="0" y="0" style="font-family:Arial;font-size:15.00px;fill:rgb(0,0,0);text-anchor:middle;">4</text>
</g></g>
<!-- Edge:    10   14 -->
<line x1="495.49" y1="346.29" x2="284.29" y2="224.59" style="stroke-width:2.00;stroke:rgb(204,204,255)"/>
<g transform="translate(400.44 380.26)">
<g transform="rotate(166.02)">
<text x="0" y="0" style="font-family:Arial;font-size:15.00px;fill:rgb(0,0,0);text-anchor:middle;">7</text>
</g></g>
<!-- Edge:    10   15 -->
<line x1="495.49" y1="346.29" x2="300.55" y2="394.81" style="stroke-width:2.00;stroke:rgb(204,204,255)"/>
<g transform="translate(471.19 266.01)">
<g transform="rotate(260.00)">
<text x="0" y="0" style="font-family:Arial;font-size:15.00px;fill:rgb(0,0,0);text-anchor:middle;">5</text>
</g></g>
<!-- Edge:    10   16 -->
<line x1="495.49" y1="346.29" x2="466.58" y2="182.25" style="stroke-width:2.00;stroke:rgb(204,204,255)"/>
<g transform="translate(421.52 338.35)">
<g transform="rotate(193.85)">
<text x="0" y="0" style="font-family:Arial;font-size:15.00px;fill:rgb(0,0,0);text-anchor:middle;">5</text>
</g></g>
<!-- Edge:    10   17 -->
<line x1="495.49" y1="346.29" x2="352.33" y2="311.00" style="stroke-width:2.00;stroke:rgb(204,204,255)"/>
<g transform="translate(214.74 157.21)">
<g transform="rotate(38.17)">
<text x="0" y="0" style="font-family:Arial;font-size:15.00px;fill:rgb(0,0,0);text-anchor:middle;">4</text>
</g></g>
<!-- Edge:    11   14 -->
<line x1="132.84" y1="105.56" x2="284.29" y2="224.59" style="stroke-width:2.00;stroke:rgb(204,204,255)"/>
<g transform="translate(104.55 167.31)">
<g transform="rotate(123.08)">
<text x="0" y="0" style="font-family:Arial;font-size:15.00px;fill:rgb(0,0,0);text-anchor:middle;">4</text>
</g></g>
<!-- Edge:    11   19 -->
<line x1="132.84" y1="105.56" x2="59.50" y2="218.15" style="stroke-width:2.00;stroke:rgb(204,204,255)"/>
<g transform="translate(432.82 532.75)">
<g transform="rotate(170.62)">
<text x="0" y="0" style="font-family:Arial;font-size:15.00px;fill:rgb(0,0,0);text-anchor:middle;">5</text>
</g></g>
<!-- Edge:    12   13 -->
<line x1="517.17" y1="508.69" x2="345.22" y2="537.08" style="stroke-width:2.00;stroke:rgb(204,204,255)"/>
<g transform="translate(404.20 460.60)">
<g transform="rotate(207.73)">
<text x="0" y="0" style="font-family:Arial;font-size:15.00px;fill:rgb(0,0,0);text-anchor:middle;">4</text>
</g></g>
<!-- Edge:    12   15 -->
<line x1="517.17" y1="508.69" x2="300.55" y2="394.81" style="stroke-width:2.00;stroke:rgb(204,204,255)"/>
<g transform="translate(338.78 423.72)">
<g transform="rotate(-88.20)">
<text x="0" y="0" style="font-family:Arial;font-size:15.00px;fill:rgb(0,0,0);text-anchor:middle;">4</text>
</g></g>
<!-- Edge:    13   17 -->
<line x1="345.22" y1="537.08" x2="352.33" y2="311.00" style="stroke-width:2.00;stroke:rgb(204,204,255)"/>
<g transform="translate(251.85 486.95)">
<g transform="rotate(213.64)">
<text x="0" y="0" style="font-family:Arial;font-size:15.00px;fill:rgb(0,0,0);text-anchor:middle;">4</text>
</g></g>
<!-- Edge:    13   18 -->
<line x1="345.22" y1="537.08" x2="169.56" y2="420.18" style="stroke-width:2.00;stroke:rgb(204,204,255)"/>
<g transform="translate(302.37 308.75)">
<g transform="rotate(84.54)">
<text x="0" y="0" style="font-family:Arial;font-size:15.00px;fill:rgb(0,0,0);text-anchor:middle;">5</text>
</g></g>
<!-- Edge:    14   15 -->
<line x1="284.29" y1="224.59" x2="300.55" y2="394.81" style="stroke-width:2.00;stroke:rgb(204,204,255)"/>
<g transform="translate(373.17 193.68)">
<g transform="rotate(-13.08)">
<text x="0" y="0" style="font-family:Arial;font-size:15.00px;fill:rgb(0,0,0);text-anchor:middle;">4</text>
</g></g>
<!-- Edge:    14   16 -->
<line x1="284.29" y1="224.59" x2="466.58" y2="182.25" style="stroke-width:2.00;stroke:rgb(204,204,255)"/>
<g transform="translate(326.16 261.61)">
<g transform="rotate(51.78)">
<text x="0" y="0" style="font-family:Arial;font-size:15.00px;fill:rgb(0,0,0);text-anchor:middle;">5</text>
</g></g>
<!-- Edge:    14   17 -->
<line x1="284.29" y1="224.59" x2="352.33" y2="311.00" style="stroke-width:2.00;stroke:rgb(204,204,255)"/>
<g transform="translate(235.55 327.44)">
<g transform="rotate(120.39)">
<text x="0" y="0" style="font-family:Arial;font-size:15.00px;fill:rgb(0,0,0);text-anchor:middle;">5</text>
</g></g>
<!-- Edge:    14   18 -->
<line x1="284.29" y1="224.59" x2="169.56" y2="420.18" style="stroke-width:2.00;stroke:rgb(204,204,255)"/>
<g transform="translate(171.61 231.37)">
<g transform="rotate(181.64)">
<text x="0" y="0" style="font-family:Arial;font-size:15.00px;fill:rgb(0,0,0);text-anchor:middle;">5</text>
</g></g>
<!-- Edge:    14   19 -->
<line x1="284.29" y1="224.59" x2="59.50" y2="218.15" style="stroke-width:2.00;stroke:rgb(204,204,255)"/>
<g transform="translate(295.32 128.77)">
<g transform="rotate(-77.48)">
<text x="0" y="0" style="font-family:Arial;font-size:15.00px;fill:rgb(0,0,0);text-anchor:middle;">4</text>
</g></g>
<!-- Edge:    14   20 -->
<line x1="284.29" y1="224.59" x2="325.88" y2="37.29" style="stroke-width:2.00;stroke:rgb(204,204,255)"/>
<g transform="translate(317.93 347.65)">
<g transform="rotate(-58.29)">
<text x="0" y="0" style="font-family:Arial;font-size:15.00px;fill:rgb(0,0,0);text-anchor:middle;">5</text>
</g></g>
<!-- Edge:    15   17 -->
<line x1="300.55" y1="394.81" x2="352.33" y2="311.00" style="stroke-width:2.00;stroke:rgb(204,204,255)"/>
<g transform="translate(236.96 417.31)">
<g transform="rotate(169.04)">
<text x="0" y="0" style="font-family:Arial;font-size:15.00px;fill:rgb(0,0,0);text-anchor:middle;">4</text>
</g></g>
<!-- Edge:    15   18 -->
<line x1="300.55" y1="394.81" x2="169.56" y2="420.18" style="stroke-width:2.00;stroke:rgb(204,204,255)"/>
<g transform="translate(416.93 253.26)">
<g transform="rotate(131.59)">
<text x="0" y="0" style="font-family:Arial;font-size:15.00px;fill:rgb(0,0,0);text-anchor:middle;">4</text>
</g></g>
<!-- Edge:    16   17 -->
<line x1="466.58" y1="182.25" x2="352.33" y2="311.00" style="stroke-width:2.00;stroke:rgb(204,204,255)"/>
<g transform="translate(266.08 374.17)">
<g transform="rotate(149.15)">
<text x="0" y="0" style="font-family:Arial;font-size:15.00px;fill:rgb(0,0,0);text-anchor:middle;">4</text>
</g></g>
<!-- Edge:    17   18 -->
<line x1="352.33" y1="311.00" x2="169.56" y2="420.18" style="stroke-width:2.00;stroke:rgb(204,204,255)"/>

<!-- Vertex:     1 -->
<ellipse cx="1052.93" cy="80.51" rx="10.00" ry="10.00" style="fill:rgb(127,255,0);stroke:rgb(127,0,255);stroke-width:0.50;"/>
<text x="1058.10" y="99.83" style="font-family:Arial;font-weight: bold;font-size:12px;fill:rgb(0,0,0)">[11.00] Madero, Francisco</text>
<!-- Vertex:     2 -->
<ellipse cx="958.50" cy="159.91" rx="10.00" ry="10.00" style="fill:rgb(255,255,0);stroke:rgb(127,0,255);stroke-width:0.50;"/>
<text x="963.67" y="179.23" style="font-family:Arial;font-weight: bold;font-size:12px;fill:rgb(0,0,0)">[13.00] Carranza, Venustiano</text>
<!-- Vertex:     3 -->
<ellipse cx="1025.51" cy="224.98" rx="10.00" ry="10.00" style="fill:rgb(255,255,0);stroke:rgb(127,0,255);stroke-width:0.50;"/>
<text x="1030.69" y="244.30" style="font-family:Arial;font-weight: bold;font-size:12px;fill:rgb(0,0,0)">[20.00] Obregon, Alvaro</text>
<!-- Vertex:     4 -->
<ellipse cx="1037.70" cy="331.95" rx="10.00" ry="10.00" style="fill:rgb(255,255,0);stroke:rgb(127,0,255);stroke-width:0.50;"/>
<text x="1042.87" y="351.27" style="font-family:Arial;font-weight: bold;font-size:12px;fill:rgb(0,0,0)">[24.00] Calles, Plutarco E.</text>
<!-- Vertex:     5 -->
<ellipse cx="105.60" cy="534.87" rx="10.00" ry="10.00" style="fill:rgb(255,255,0);stroke:rgb(127,0,255);stroke-width:0.50;"/>
<text x="110.77" y="554.19" style="font-family:Arial;font-weight: bold;font-size:12px;fill:rgb(0,0,0)">[18.00] Aguilar, Candido</text>
<!-- Vertex:     6 -->
<ellipse cx="928.04" cy="303.28" rx="10.00" ry="10.00" style="fill:rgb(127,255,0);stroke:rgb(127,0,255);stroke-width:0.50;"/>
<text x="933.21" y="322.60" style="font-family:Arial;font-weight: bold;font-size:12px;fill:rgb(0,0,0)">[28.00] Portes Gil, Emilio</text>
<!-- Vertex:     7 -->
<ellipse cx="105.60" cy="678.24" rx="10.00" ry="10.00" style="fill:rgb(255,255,0);stroke:rgb(127,0,255);stroke-width:0.50;"/>
<text x="110.77" y="697.56" style="font-family:Arial;font-weight: bold;font-size:12px;fill:rgb(0,0,0)">[27.00] Aleman Gonzalez, Miguel</text>
<!-- Vertex:     8 -->
<ellipse cx="682.78" cy="231.85" rx="10.00" ry="10.00" style="fill:rgb(255,255,0);stroke:rgb(127,0,255);stroke-width:0.50;"/>
<text x="687.96" y="251.17" style="font-family:Arial;font-weight: bold;font-size:12px;fill:rgb(0,0,0)">[34.00] Cardenas, Lazaro</text>
<!-- Vertex:     9 -->
<ellipse cx="693.84" cy="397.01" rx="10.00" ry="10.00" style="fill:rgb(255,255,0);stroke:rgb(127,0,255);stroke-width:0.50;"/>
<text x="699.02" y="416.33" style="font-family:Arial;font-weight: bold;font-size:12px;fill:rgb(0,0,0)">[40.00] Avila Camacho, Manuel</text>
<!-- Vertex:    10 -->
<ellipse cx="495.49" cy="346.29" rx="10.00" ry="10.00" style="fill:rgb(255,255,0);stroke:rgb(127,0,255);stroke-width:0.50;"/>
<text x="500.67" y="365.61" style="font-family:Arial;font-weight: bold;font-size:12px;fill:rgb(0,0,0)">[46.00] Aleman Valdes, Miguel</text>
<!-- Vertex:    11 -->
<ellipse cx="132.84" cy="105.56" rx="10.00" ry="10.00" style="fill:rgb(127,255,0);stroke:rgb(127,0,255);stroke-width:0.50;"/>
<text x="138.02" y="124.88" style="font-family:Arial;font-weight: bold;font-size:12px;fill:rgb(0,0,0)">[70.00] Beteta, Mario Ramon</text>
<!-- Vertex:    12 -->
<ellipse cx="517.17" cy="508.69" rx="10.00" ry="10.00" style="fill:rgb(127,255,0);stroke:rgb(127,0,255);stroke-width:0.50;"/>
<text x="522.35" y="528.00" style="font-family:Arial;font-weight: bold;font-size:12px;fill:rgb(0,0,0)">[52.00] Ruiz Cortines, Adolfo</text>
<!-- Vertex:    13 -->
<ellipse cx="345.22" cy="537.08" rx="10.00" ry="10.00" style="fill:rgb(127,255,0);stroke:rgb(127,0,255);stroke-width:0.50;"/>
<text x="350.40" y="556.40" style="font-family:Arial;font-weight: bold;font-size:12px;fill:rgb(0,0,0)">[58.00] Lopez Mateos, Adolfo</text>
<!-- Vertex:    14 -->
<ellipse cx="284.29" cy="224.59" rx="10.00" ry="10.00" style="fill:rgb(127,255,0);stroke:rgb(127,0,255);stroke-width:0.50;"/>
<text x="289.46" y="243.91" style="font-family:Arial;font-weight: bold;font-size:12px;fill:rgb(0,0,0)">[65.00] Margain, Hugo B.</text>
<!-- Vertex:    15 -->
<ellipse cx="300.55" cy="394.81" rx="10.00" ry="10.00" style="fill:rgb(127,255,0);stroke:rgb(127,0,255);stroke-width:0.50;"/>
<text x="305.72" y="414.13" style="font-family:Arial;font-weight: bold;font-size:12px;fill:rgb(0,0,0)">[52.00] Carrillo Flores, Antonio</text>
<!-- Vertex:    16 -->
<ellipse cx="466.58" cy="182.25" rx="10.00" ry="10.00" style="fill:rgb(127,255,0);stroke:rgb(127,0,255);stroke-width:0.50;"/>
<text x="471.76" y="201.57" style="font-family:Arial;font-weight: bold;font-size:12px;fill:rgb(0,0,0)">[65.00] Diaz Ordaz, Gustavo</text>
<!-- Vertex:    17 -->
<ellipse cx="352.33" cy="311.00" rx="10.00" ry="10.00" style="fill:rgb(127,255,0);stroke:rgb(127,0,255);stroke-width:0.50;"/>
<text x="357.51" y="330.32" style="font-family:Arial;font-weight: bold;font-size:12px;fill:rgb(0,0,0)">[52.00] Ortiz Mena, Antonio</text>
<!-- Vertex:    18 -->
<ellipse cx="169.56" cy="420.18" rx="10.00" ry="10.00" style="fill:rgb(127,255,0);stroke:rgb(127,0,255);stroke-width:0.50;"/>
<text x="174.74" y="439.50" style="font-family:Arial;font-weight: bold;font-size:12px;fill:rgb(0,0,0)">[56.00] Salinas Lozano, Raul</text>
<!-- Vertex:    19 -->
<ellipse cx="59.50" cy="218.15" rx="10.00" ry="10.00" style="fill:rgb(127,255,0);stroke:rgb(127,0,255);stroke-width:0.50;"/>
<text x="64.68" y="237.47" style="font-family:Arial;font-weight: bold;font-size:12px;fill:rgb(0,0,0)">[82.00] De la Madrid, Miguel</text>
<!-- Vertex:    20 -->
<ellipse cx="325.88" cy="37.29" rx="10.00" ry="10.00" style="fill:rgb(127,255,0);stroke:rgb(127,0,255);stroke-width:0.50;"/>
<text x="331.06" y="56.61" style="font-family:Arial;font-weight: bold;font-size:12px;fill:rgb(0,0,0)">[88.00] Salinas de Gortari, Carlos</text>
</g>         <!-- Layer Network -->
</svg>
