<?xml version="1.0" encoding="UTF-8"?>
<!-- Title: 2. Subnetwork of N1 induced by C7 [5] (25) -->
<!-- Creator: Pajek 5.16: http://mrvar.fdv.uni-lj.si/pajek -->
<!-- CreationDate: 12-17-2022, 17:54:07 -->
<svg xml:space="preserve" viewBox="0 0 1936 1048" xmlns="http://www.w3.org/2000/svg" xmlns:xlink="http://www.w3.org/1999/xlink" xmlns:inkscape="http://www.inkscape.org/namespaces/inkscape">
<title>2. Subnetwork of N1 induced by C7 [5] (25)</title>
<g inkscape:groupmode="layer" id="PajekSig" inkscape:label="PajekSignature">
<g transform="translate(3 1030)">
<g transform="scale(0.1)">
<g transform="matrix(1 0 0 -1 0 96)">
<path d="M   7.67  49.98 L  31.76  72.76 L  46.91  78.63
         L  57.23  80.49 M  72.86  65.23 L  65.73  83.25
         L  57.06  75.49 L  56.75  68.65 M  76.27  68.03
         L  75.65  84.50 L  93.92  91.02 L 107.24  74.87
         M  80.29  67.72 L  89.28  84.81 L 104.77  81.70
         L 116.23  73.31 L 121.18  59.33 M  56.75  81.08
         L  71.31  64.30"
         style="fill:none; stroke:saddlebrown; stroke-width:5;"/>
<path d="M  86.18  70.21 L  91.45  73.00 L  95.78  69.58
         M  91.14  60.88 L  96.09  62.75 L  98.26  59.33"
         style="fill:none; stroke:saddlebrown; stroke-width:1.5;"/>
<path d="M  81.07  49.08 L  87.81  49.08 L  93.30  54.38
         L  93.30  60.88 L  93.30  67.39 L  87.81  72.69
         L  81.07  72.69 L  74.33  72.69 L  68.83  67.39
         L  68.83  60.88 L  68.83  54.38 L  74.33  49.08
         L  81.07  49.08 z"
         style="fill:maroon; stroke:saddlebrown; stroke-width:1;"/>
<path d="M  54.63  37.53 L  68.53  43.56 L  75.39  55.85
         L  69.90  65.35 L  64.41  72.86 L  48.60  74.06
         L  34.71  68.04 L  20.81  55.02 L  15.95  40.72
         L  17.44  33.22 L  24.92  28.72 L  40.73  30.51
         L  54.63  37.53 z"
         style="fill:maroon; stroke:saddlebrown; stroke-width:1;" />
<path d="M  77.82  50.63 L 103.84  59.33 L 131.10  43.80
         L 139.46  27.95 L 139.15  15.83 M  35.99   5.27
         L  47.15  32.92 L  61.71  50.01 L  70.07  46.90
         L  82.77  45.04 L  83.39  27.02 L  65.42  12.11
         M  68.52  50.63 L  91.14  49.39 L 103.53  43.17
         L 117.16  22.67 L 115.30   8.38"
         style="fill:none; stroke:saddlebrown; stroke-width:5;"/>
<path d="M  41.57  54.98 L  60.16  64.61 M  52.41  66.17
         L  57.99  57.47"
         style="fill:none; stroke:white; stroke-width:5;"/>
</g>
</g>
<animateMotion dur="20s" path="M3 0 L1918 0" begin="120s" fill="freeze"/>
</g>
<g transform="translate(3 1030)">
<g transform="scale(0.1)">
<text x="5" y="140" style="font-family:Brush Script MT;font-size:75px;fill:green;">Pajek</text>
</g>
<animateMotion dur="0.1s" path="M3 0 L1918 0" begin="120s" fill="freeze"/>
</g>
</g>      <!-- Layer Signature -->

<g inkscape:groupmode="layer" id="PajekNet" inkscape:label="PajekNetwork">

<!-- Edge:     1    2 -->
<line x1="1774.67" y1="718.45" x2="1649.67" y2="422.09" style="stroke-width:2.00;stroke:rgb(204,204,255)"/>
<!-- Edge:     1    3 -->
<line x1="1774.67" y1="718.45" x2="1782.61" y2="527.69" style="stroke-width:2.00;stroke:rgb(204,204,255)"/>
<!-- Edge:     1    4 -->
<line x1="1774.67" y1="718.45" x2="1487.89" y2="759.37" style="stroke-width:2.00;stroke:rgb(204,204,255)"/>
<!-- Edge:     1    5 -->
<line x1="1774.67" y1="718.45" x2="1460.07" y2="351.81" style="stroke-width:2.00;stroke:rgb(204,204,255)"/>
<!-- Edge:     1    6 -->
<line x1="1774.67" y1="718.45" x2="1433.65" y2="595.83" style="stroke-width:2.00;stroke:rgb(204,204,255)"/>
<!-- Edge:     2    3 -->
<line x1="1649.67" y1="422.09" x2="1782.61" y2="527.69" style="stroke-width:2.00;stroke:rgb(204,204,255)"/>
<!-- Edge:     2    4 -->
<line x1="1649.67" y1="422.09" x2="1487.89" y2="759.37" style="stroke-width:2.00;stroke:rgb(204,204,255)"/>
<!-- Edge:     2    5 -->
<line x1="1649.67" y1="422.09" x2="1460.07" y2="351.81" style="stroke-width:2.00;stroke:rgb(204,204,255)"/>
<!-- Edge:     2    6 -->
<line x1="1649.67" y1="422.09" x2="1433.65" y2="595.83" style="stroke-width:2.00;stroke:rgb(204,204,255)"/>
<!-- Edge:     2    7 -->
<line x1="1649.67" y1="422.09" x2="1557.42" y2="240.04" style="stroke-width:2.00;stroke:rgb(204,204,255)"/>
<!-- Edge:     2   14 -->
<line x1="1649.67" y1="422.09" x2="925.74" y2="236.26" style="stroke-width:2.00;stroke:rgb(204,204,255)"/>
<!-- Edge:     3    4 -->
<line x1="1782.61" y1="527.69" x2="1487.89" y2="759.37" style="stroke-width:2.00;stroke:rgb(204,204,255)"/>
<!-- Edge:     3    6 -->
<line x1="1782.61" y1="527.69" x2="1433.65" y2="595.83" style="stroke-width:2.00;stroke:rgb(204,204,255)"/>
<!-- Edge:     3    7 -->
<line x1="1782.61" y1="527.69" x2="1557.42" y2="240.04" style="stroke-width:2.00;stroke:rgb(204,204,255)"/>
<!-- Edge:     3    9 -->
<line x1="1782.61" y1="527.69" x2="1180.90" y2="539.76" style="stroke-width:2.00;stroke:rgb(204,204,255)"/>
<!-- Edge:     4    6 -->
<line x1="1487.89" y1="759.37" x2="1433.65" y2="595.83" style="stroke-width:2.00;stroke:rgb(204,204,255)"/>
<!-- Edge:     4    9 -->
<line x1="1487.89" y1="759.37" x2="1180.90" y2="539.76" style="stroke-width:2.00;stroke:rgb(204,204,255)"/>
<!-- Edge:     4   12 -->
<line x1="1487.89" y1="759.37" x2="930.31" y2="776.16" style="stroke-width:2.00;stroke:rgb(204,204,255)"/>
<!-- Edge:     5    7 -->
<line x1="1460.07" y1="351.81" x2="1557.42" y2="240.04" style="stroke-width:2.00;stroke:rgb(204,204,255)"/>
<!-- Edge:     5    8 -->
<line x1="1460.07" y1="351.81" x2="1275.84" y2="151.55" style="stroke-width:2.00;stroke:rgb(204,204,255)"/>
<!-- Edge:     5    9 -->
<line x1="1460.07" y1="351.81" x2="1180.90" y2="539.76" style="stroke-width:2.00;stroke:rgb(204,204,255)"/>
<!-- Edge:     5   11 -->
<line x1="1460.07" y1="351.81" x2="957.29" y2="438.94" style="stroke-width:2.00;stroke:rgb(204,204,255)"/>
<!-- Edge:     6    9 -->
<line x1="1433.65" y1="595.83" x2="1180.90" y2="539.76" style="stroke-width:2.00;stroke:rgb(204,204,255)"/>
<!-- Edge:     6   10 -->
<line x1="1433.65" y1="595.83" x2="1199.99" y2="333.87" style="stroke-width:2.00;stroke:rgb(204,204,255)"/>
<!-- Edge:     6   18 -->
<line x1="1433.65" y1="595.83" x2="1113.85" y2="670.95" style="stroke-width:2.00;stroke:rgb(204,204,255)"/>
<!-- Edge:     6   19 -->
<line x1="1433.65" y1="595.83" x2="796.01" y2="490.56" style="stroke-width:2.00;stroke:rgb(204,204,255)"/>
<!-- Edge:     7    8 -->
<line x1="1557.42" y1="240.04" x2="1275.84" y2="151.55" style="stroke-width:2.00;stroke:rgb(204,204,255)"/>
<!-- Edge:     7   11 -->
<line x1="1557.42" y1="240.04" x2="957.29" y2="438.94" style="stroke-width:2.00;stroke:rgb(204,204,255)"/>
<!-- Edge:     8    9 -->
<line x1="1275.84" y1="151.55" x2="1180.90" y2="539.76" style="stroke-width:2.00;stroke:rgb(204,204,255)"/>
<!-- Edge:     8   10 -->
<line x1="1275.84" y1="151.55" x2="1199.99" y2="333.87" style="stroke-width:2.00;stroke:rgb(204,204,255)"/>
<!-- Edge:     8   14 -->
<line x1="1275.84" y1="151.55" x2="925.74" y2="236.26" style="stroke-width:2.00;stroke:rgb(204,204,255)"/>
<!-- Edge:     9   10 -->
<line x1="1180.90" y1="539.76" x2="1199.99" y2="333.87" style="stroke-width:2.00;stroke:rgb(204,204,255)"/>
<!-- Edge:     9   11 -->
<line x1="1180.90" y1="539.76" x2="957.29" y2="438.94" style="stroke-width:2.00;stroke:rgb(204,204,255)"/>
<!-- Edge:     9   12 -->
<line x1="1180.90" y1="539.76" x2="930.31" y2="776.16" style="stroke-width:2.00;stroke:rgb(204,204,255)"/>
<!-- Edge:     9   23 -->
<line x1="1180.90" y1="539.76" x2="423.97" y2="530.86" style="stroke-width:2.00;stroke:rgb(204,204,255)"/>
<!-- Edge:    10   11 -->
<line x1="1199.99" y1="333.87" x2="957.29" y2="438.94" style="stroke-width:2.00;stroke:rgb(204,204,255)"/>
<!-- Edge:    10   14 -->
<line x1="1199.99" y1="333.87" x2="925.74" y2="236.26" style="stroke-width:2.00;stroke:rgb(204,204,255)"/>
<!-- Edge:    10   18 -->
<line x1="1199.99" y1="333.87" x2="1113.85" y2="670.95" style="stroke-width:2.00;stroke:rgb(204,204,255)"/>
<!-- Edge:    10   20 -->
<line x1="1199.99" y1="333.87" x2="709.46" y2="254.88" style="stroke-width:2.00;stroke:rgb(204,204,255)"/>
<!-- Edge:    11   12 -->
<line x1="957.29" y1="438.94" x2="930.31" y2="776.16" style="stroke-width:2.00;stroke:rgb(204,204,255)"/>
<!-- Edge:    11   14 -->
<line x1="957.29" y1="438.94" x2="925.74" y2="236.26" style="stroke-width:2.00;stroke:rgb(204,204,255)"/>
<!-- Edge:    11   15 -->
<line x1="957.29" y1="438.94" x2="511.22" y2="233.12" style="stroke-width:2.00;stroke:rgb(204,204,255)"/>
<!-- Edge:    11   16 -->
<line x1="957.29" y1="438.94" x2="517.97" y2="615.61" style="stroke-width:2.00;stroke:rgb(204,204,255)"/>
<!-- Edge:    11   18 -->
<line x1="957.29" y1="438.94" x2="1113.85" y2="670.95" style="stroke-width:2.00;stroke:rgb(204,204,255)"/>
<!-- Edge:    11   19 -->
<line x1="957.29" y1="438.94" x2="796.01" y2="490.56" style="stroke-width:2.00;stroke:rgb(204,204,255)"/>
<!-- Edge:    11   20 -->
<line x1="957.29" y1="438.94" x2="709.46" y2="254.88" style="stroke-width:2.00;stroke:rgb(204,204,255)"/>
<!-- Edge:    11   21 -->
<line x1="957.29" y1="438.94" x2="680.04" y2="668.76" style="stroke-width:2.00;stroke:rgb(204,204,255)"/>
<!-- Edge:    11   22 -->
<line x1="957.29" y1="438.94" x2="474.02" y2="391.94" style="stroke-width:2.00;stroke:rgb(204,204,255)"/>
<!-- Edge:    12   13 -->
<line x1="930.31" y1="776.16" x2="519.83" y2="884.55" style="stroke-width:2.00;stroke:rgb(204,204,255)"/>
<!-- Edge:    12   16 -->
<line x1="930.31" y1="776.16" x2="517.97" y2="615.61" style="stroke-width:2.00;stroke:rgb(204,204,255)"/>
<!-- Edge:    12   24 -->
<line x1="930.31" y1="776.16" x2="305.60" y2="806.64" style="stroke-width:2.00;stroke:rgb(204,204,255)"/>
<!-- Edge:    13   16 -->
<line x1="519.83" y1="884.55" x2="517.97" y2="615.61" style="stroke-width:2.00;stroke:rgb(204,204,255)"/>
<!-- Edge:    13   21 -->
<line x1="519.83" y1="884.55" x2="680.04" y2="668.76" style="stroke-width:2.00;stroke:rgb(204,204,255)"/>
<!-- Edge:    13   24 -->
<line x1="519.83" y1="884.55" x2="305.60" y2="806.64" style="stroke-width:2.00;stroke:rgb(204,204,255)"/>
<!-- Edge:    13   25 -->
<line x1="519.83" y1="884.55" x2="92.44" y2="643.99" style="stroke-width:2.00;stroke:rgb(204,204,255)"/>
<!-- Edge:    14   15 -->
<line x1="925.74" y1="236.26" x2="511.22" y2="233.12" style="stroke-width:2.00;stroke:rgb(204,204,255)"/>
<!-- Edge:    14   17 -->
<line x1="925.74" y1="236.26" x2="304.67" y2="345.56" style="stroke-width:2.00;stroke:rgb(204,204,255)"/>
<!-- Edge:    14   19 -->
<line x1="925.74" y1="236.26" x2="796.01" y2="490.56" style="stroke-width:2.00;stroke:rgb(204,204,255)"/>
<!-- Edge:    14   22 -->
<line x1="925.74" y1="236.26" x2="474.02" y2="391.94" style="stroke-width:2.00;stroke:rgb(204,204,255)"/>
<!-- Edge:    15   17 -->
<line x1="511.22" y1="233.12" x2="304.67" y2="345.56" style="stroke-width:2.00;stroke:rgb(204,204,255)"/>
<!-- Edge:    15   20 -->
<line x1="511.22" y1="233.12" x2="709.46" y2="254.88" style="stroke-width:2.00;stroke:rgb(204,204,255)"/>
<!-- Edge:    15   21 -->
<line x1="511.22" y1="233.12" x2="680.04" y2="668.76" style="stroke-width:2.00;stroke:rgb(204,204,255)"/>
<!-- Edge:    15   22 -->
<line x1="511.22" y1="233.12" x2="474.02" y2="391.94" style="stroke-width:2.00;stroke:rgb(204,204,255)"/>
<!-- Edge:    15   23 -->
<line x1="511.22" y1="233.12" x2="423.97" y2="530.86" style="stroke-width:2.00;stroke:rgb(204,204,255)"/>
<!-- Edge:    16   17 -->
<line x1="517.97" y1="615.61" x2="304.67" y2="345.56" style="stroke-width:2.00;stroke:rgb(204,204,255)"/>
<!-- Edge:    16   19 -->
<line x1="517.97" y1="615.61" x2="796.01" y2="490.56" style="stroke-width:2.00;stroke:rgb(204,204,255)"/>
<!-- Edge:    16   20 -->
<line x1="517.97" y1="615.61" x2="709.46" y2="254.88" style="stroke-width:2.00;stroke:rgb(204,204,255)"/>
<!-- Edge:    16   22 -->
<line x1="517.97" y1="615.61" x2="474.02" y2="391.94" style="stroke-width:2.00;stroke:rgb(204,204,255)"/>
<!-- Edge:    16   23 -->
<line x1="517.97" y1="615.61" x2="423.97" y2="530.86" style="stroke-width:2.00;stroke:rgb(204,204,255)"/>
<!-- Edge:    16   24 -->
<line x1="517.97" y1="615.61" x2="305.60" y2="806.64" style="stroke-width:2.00;stroke:rgb(204,204,255)"/>
<!-- Edge:    16   25 -->
<line x1="517.97" y1="615.61" x2="92.44" y2="643.99" style="stroke-width:2.00;stroke:rgb(204,204,255)"/>
<!-- Edge:    17   19 -->
<line x1="304.67" y1="345.56" x2="796.01" y2="490.56" style="stroke-width:2.00;stroke:rgb(204,204,255)"/>
<!-- Edge:    17   23 -->
<line x1="304.67" y1="345.56" x2="423.97" y2="530.86" style="stroke-width:2.00;stroke:rgb(204,204,255)"/>
<!-- Edge:    18   19 -->
<line x1="1113.85" y1="670.95" x2="796.01" y2="490.56" style="stroke-width:2.00;stroke:rgb(204,204,255)"/>
<!-- Edge:    18   21 -->
<line x1="1113.85" y1="670.95" x2="680.04" y2="668.76" style="stroke-width:2.00;stroke:rgb(204,204,255)"/>
<!-- Edge:    19   20 -->
<line x1="796.01" y1="490.56" x2="709.46" y2="254.88" style="stroke-width:2.00;stroke:rgb(204,204,255)"/>
<!-- Edge:    19   21 -->
<line x1="796.01" y1="490.56" x2="680.04" y2="668.76" style="stroke-width:2.00;stroke:rgb(204,204,255)"/>
<!-- Edge:    19   22 -->
<line x1="796.01" y1="490.56" x2="474.02" y2="391.94" style="stroke-width:2.00;stroke:rgb(204,204,255)"/>
<!-- Edge:    19   23 -->
<line x1="796.01" y1="490.56" x2="423.97" y2="530.86" style="stroke-width:2.00;stroke:rgb(204,204,255)"/>
<!-- Edge:    20   22 -->
<line x1="709.46" y1="254.88" x2="474.02" y2="391.94" style="stroke-width:2.00;stroke:rgb(204,204,255)"/>
<!-- Edge:    21   23 -->
<line x1="680.04" y1="668.76" x2="423.97" y2="530.86" style="stroke-width:2.00;stroke:rgb(204,204,255)"/>
<!-- Edge:    22   23 -->
<line x1="474.02" y1="391.94" x2="423.97" y2="530.86" style="stroke-width:2.00;stroke:rgb(204,204,255)"/>
<!-- Edge:    22   25 -->
<line x1="474.02" y1="391.94" x2="92.44" y2="643.99" style="stroke-width:2.00;stroke:rgb(204,204,255)"/>
<!-- Edge:    23   24 -->
<line x1="423.97" y1="530.86" x2="305.60" y2="806.64" style="stroke-width:2.00;stroke:rgb(204,204,255)"/>
<!-- Edge:    23   25 -->
<line x1="423.97" y1="530.86" x2="92.44" y2="643.99" style="stroke-width:2.00;stroke:rgb(204,204,255)"/>
<!-- Edge:    24   25 -->
<line x1="305.60" y1="806.64" x2="92.44" y2="643.99" style="stroke-width:2.00;stroke:rgb(204,204,255)"/>

<!-- Vertex:     1 -->
<ellipse cx="1774.67" cy="718.45" rx="15.63" ry="15.63" style="fill:rgb(153,50,204);stroke:rgb(153,50,204);stroke-width:0.50;"/>
<text x="1779.84" y="737.77" style="font-family:Arial;font-weight: bold;font-size:15px;fill:rgb(0,0,0)">Madero, Francisco</text>
<!-- Vertex:     2 -->
<ellipse cx="1649.67" cy="422.09" rx="15.63" ry="15.63" style="fill:rgb(153,50,204);stroke:rgb(153,50,204);stroke-width:0.50;"/>
<text x="1654.85" y="441.41" style="font-family:Arial;font-weight: bold;font-size:15px;fill:rgb(0,0,0)">Carranza, Venustiano</text>
<!-- Vertex:     3 -->
<ellipse cx="1782.61" cy="527.69" rx="15.63" ry="15.63" style="fill:rgb(153,50,204);stroke:rgb(153,50,204);stroke-width:0.50;"/>
<text x="1787.78" y="547.01" style="font-family:Arial;font-weight: bold;font-size:15px;fill:rgb(0,0,0)">Obregon, Alvaro</text>
<!-- Vertex:     4 -->
<ellipse cx="1487.89" cy="759.37" rx="15.63" ry="15.63" style="fill:rgb(153,50,204);stroke:rgb(153,50,204);stroke-width:0.50;"/>
<text x="1493.07" y="778.68" style="font-family:Arial;font-weight: bold;font-size:15px;fill:rgb(0,0,0)">Calles, Plutarco E.</text>
<!-- Vertex:     5 -->
<ellipse cx="1460.07" cy="351.81" rx="15.63" ry="15.63" style="fill:rgb(153,50,204);stroke:rgb(153,50,204);stroke-width:0.50;"/>
<text x="1465.24" y="371.12" style="font-family:Arial;font-weight: bold;font-size:15px;fill:rgb(0,0,0)">Aguilar, Candido</text>
<!-- Vertex:     6 -->
<ellipse cx="1433.65" cy="595.83" rx="15.63" ry="15.63" style="fill:rgb(153,50,204);stroke:rgb(153,50,204);stroke-width:0.50;"/>
<text x="1438.82" y="615.15" style="font-family:Arial;font-weight: bold;font-size:15px;fill:rgb(0,0,0)">Portes Gil, Emilio</text>
<!-- Vertex:     7 -->
<ellipse cx="1557.42" cy="240.04" rx="15.63" ry="15.63" style="fill:rgb(153,50,204);stroke:rgb(153,50,204);stroke-width:0.50;"/>
<text x="1562.60" y="259.36" style="font-family:Arial;font-weight: bold;font-size:15px;fill:rgb(0,0,0)">Aleman Gonzalez, Miguel</text>
<!-- Vertex:     8 -->
<ellipse cx="1275.84" cy="151.55" rx="15.63" ry="15.63" style="fill:rgb(153,50,204);stroke:rgb(153,50,204);stroke-width:0.50;"/>
<text x="1281.02" y="170.87" style="font-family:Arial;font-weight: bold;font-size:15px;fill:rgb(0,0,0)">Jara, Heriberto</text>
<!-- Vertex:     9 -->
<ellipse cx="1180.90" cy="539.76" rx="15.63" ry="15.63" style="fill:rgb(153,50,204);stroke:rgb(153,50,204);stroke-width:0.50;"/>
<text x="1186.08" y="559.08" style="font-family:Arial;font-weight: bold;font-size:15px;fill:rgb(0,0,0)">Cardenas, Lazaro</text>
<!-- Vertex:    10 -->
<ellipse cx="1199.99" cy="333.87" rx="15.63" ry="15.63" style="fill:rgb(153,50,204);stroke:rgb(153,50,204);stroke-width:0.50;"/>
<text x="1205.17" y="353.19" style="font-family:Arial;font-weight: bold;font-size:15px;fill:rgb(0,0,0)">Avila Camacho, Manuel</text>
<!-- Vertex:    11 -->
<ellipse cx="957.29" cy="438.94" rx="15.63" ry="15.63" style="fill:rgb(153,50,204);stroke:rgb(153,50,204);stroke-width:0.50;"/>
<text x="962.46" y="458.26" style="font-family:Arial;font-weight: bold;font-size:15px;fill:rgb(0,0,0)">Aleman Valdes, Miguel</text>
<!-- Vertex:    12 -->
<ellipse cx="930.31" cy="776.16" rx="15.63" ry="15.63" style="fill:rgb(153,50,204);stroke:rgb(153,50,204);stroke-width:0.50;"/>
<text x="935.49" y="795.48" style="font-family:Arial;font-weight: bold;font-size:15px;fill:rgb(0,0,0)">Beteta, Ramon</text>
<!-- Vertex:    13 -->
<ellipse cx="519.83" cy="884.55" rx="15.63" ry="15.63" style="fill:rgb(153,50,204);stroke:rgb(153,50,204);stroke-width:0.50;"/>
<text x="525.01" y="903.87" style="font-family:Arial;font-weight: bold;font-size:15px;fill:rgb(0,0,0)">Beteta, Mario Ramon</text>
<!-- Vertex:    14 -->
<ellipse cx="925.74" cy="236.26" rx="15.63" ry="15.63" style="fill:rgb(153,50,204);stroke:rgb(153,50,204);stroke-width:0.50;"/>
<text x="930.91" y="255.57" style="font-family:Arial;font-weight: bold;font-size:15px;fill:rgb(0,0,0)">Ruiz Cortines, Adolfo</text>
<!-- Vertex:    15 -->
<ellipse cx="511.22" cy="233.12" rx="15.63" ry="15.63" style="fill:rgb(153,50,204);stroke:rgb(153,50,204);stroke-width:0.50;"/>
<text x="516.40" y="252.44" style="font-family:Arial;font-weight: bold;font-size:15px;fill:rgb(0,0,0)">Lopez Mateos, Adolfo</text>
<!-- Vertex:    16 -->
<ellipse cx="517.97" cy="615.61" rx="15.63" ry="15.63" style="fill:rgb(153,50,204);stroke:rgb(153,50,204);stroke-width:0.50;"/>
<text x="523.15" y="634.93" style="font-family:Arial;font-weight: bold;font-size:15px;fill:rgb(0,0,0)">Margain, Hugo B.</text>
<!-- Vertex:    17 -->
<ellipse cx="304.67" cy="345.56" rx="15.63" ry="15.63" style="fill:rgb(153,50,204);stroke:rgb(153,50,204);stroke-width:0.50;"/>
<text x="309.85" y="364.88" style="font-family:Arial;font-weight: bold;font-size:15px;fill:rgb(0,0,0)">Gonzalez Blanco, Salomon</text>
<!-- Vertex:    18 -->
<ellipse cx="1113.85" cy="670.95" rx="15.63" ry="15.63" style="fill:rgb(153,50,204);stroke:rgb(153,50,204);stroke-width:0.50;"/>
<text x="1119.03" y="690.27" style="font-family:Arial;font-weight: bold;font-size:15px;fill:rgb(0,0,0)">Serra Rojas, Andres</text>
<!-- Vertex:    19 -->
<ellipse cx="796.01" cy="490.56" rx="15.63" ry="15.63" style="fill:rgb(153,50,204);stroke:rgb(153,50,204);stroke-width:0.50;"/>
<text x="801.19" y="509.88" style="font-family:Arial;font-weight: bold;font-size:15px;fill:rgb(0,0,0)">Carrillo Flores, Antonio</text>
<!-- Vertex:    20 -->
<ellipse cx="709.46" cy="254.88" rx="15.63" ry="15.63" style="fill:rgb(153,50,204);stroke:rgb(153,50,204);stroke-width:0.50;"/>
<text x="714.63" y="274.20" style="font-family:Arial;font-weight: bold;font-size:15px;fill:rgb(0,0,0)">Diaz Ordaz, Gustavo</text>
<!-- Vertex:    21 -->
<ellipse cx="680.04" cy="668.76" rx="15.63" ry="15.63" style="fill:rgb(153,50,204);stroke:rgb(153,50,204);stroke-width:0.50;"/>
<text x="685.22" y="688.08" style="font-family:Arial;font-weight: bold;font-size:15px;fill:rgb(0,0,0)">Bustamante, Eduardo</text>
<!-- Vertex:    22 -->
<ellipse cx="474.02" cy="391.94" rx="15.63" ry="15.63" style="fill:rgb(153,50,204);stroke:rgb(153,50,204);stroke-width:0.50;"/>
<text x="479.19" y="411.26" style="font-family:Arial;font-weight: bold;font-size:15px;fill:rgb(0,0,0)">Ortiz Mena, Antonio</text>
<!-- Vertex:    23 -->
<ellipse cx="423.97" cy="530.86" rx="15.63" ry="15.63" style="fill:rgb(153,50,204);stroke:rgb(153,50,204);stroke-width:0.50;"/>
<text x="429.15" y="550.18" style="font-family:Arial;font-weight: bold;font-size:15px;fill:rgb(0,0,0)">Salinas Lozano, Raul</text>
<!-- Vertex:    24 -->
<ellipse cx="305.60" cy="806.64" rx="15.63" ry="15.63" style="fill:rgb(153,50,204);stroke:rgb(153,50,204);stroke-width:0.50;"/>
<text x="310.78" y="825.96" style="font-family:Arial;font-weight: bold;font-size:15px;fill:rgb(0,0,0)">De la Madrid, Miguel</text>
<!-- Vertex:    25 -->
<ellipse cx="92.44" cy="643.99" rx="15.63" ry="15.63" style="fill:rgb(153,50,204);stroke:rgb(153,50,204);stroke-width:0.50;"/>
<text x="97.61" y="663.31" style="font-family:Arial;font-weight: bold;font-size:15px;fill:rgb(0,0,0)">Salinas de Gortari, Carlos</text>
</g>         <!-- Layer Network -->
</svg>
