<?xml version="1.0" encoding="UTF-8"?>
<!-- Title: 1. mexican_power.net (35) -->
<!-- Creator: Pajek 5.16: http://mrvar.fdv.uni-lj.si/pajek -->
<!-- CreationDate: 12-17-2022, 17:43:30 -->
<svg xml:space="preserve" viewBox="0 0 1936 1048" xmlns="http://www.w3.org/2000/svg" xmlns:xlink="http://www.w3.org/1999/xlink" xmlns:inkscape="http://www.inkscape.org/namespaces/inkscape">
<title>1. mexican_power.net (35)</title>
<g inkscape:groupmode="layer" id="PajekSig" inkscape:label="PajekSignature">
<g transform="translate(3 1030)">
<g transform="scale(0.1)">
<g transform="matrix(1 0 0 -1 0 96)">
<path d="M   7.67  49.98 L  31.76  72.76 L  46.91  78.63
         L  57.23  80.49 M  72.86  65.23 L  65.73  83.25
         L  57.06  75.49 L  56.75  68.65 M  76.27  68.03
         L  75.65  84.50 L  93.92  91.02 L 107.24  74.87
         M  80.29  67.72 L  89.28  84.81 L 104.77  81.70
         L 116.23  73.31 L 121.18  59.33 M  56.75  81.08
         L  71.31  64.30"
         style="fill:none; stroke:saddlebrown; stroke-width:5;"/>
<path d="M  86.18  70.21 L  91.45  73.00 L  95.78  69.58
         M  91.14  60.88 L  96.09  62.75 L  98.26  59.33"
         style="fill:none; stroke:saddlebrown; stroke-width:1.5;"/>
<path d="M  81.07  49.08 L  87.81  49.08 L  93.30  54.38
         L  93.30  60.88 L  93.30  67.39 L  87.81  72.69
         L  81.07  72.69 L  74.33  72.69 L  68.83  67.39
         L  68.83  60.88 L  68.83  54.38 L  74.33  49.08
         L  81.07  49.08 z"
         style="fill:maroon; stroke:saddlebrown; stroke-width:1;"/>
<path d="M  54.63  37.53 L  68.53  43.56 L  75.39  55.85
         L  69.90  65.35 L  64.41  72.86 L  48.60  74.06
         L  34.71  68.04 L  20.81  55.02 L  15.95  40.72
         L  17.44  33.22 L  24.92  28.72 L  40.73  30.51
         L  54.63  37.53 z"
         style="fill:maroon; stroke:saddlebrown; stroke-width:1;" />
<path d="M  77.82  50.63 L 103.84  59.33 L 131.10  43.80
         L 139.46  27.95 L 139.15  15.83 M  35.99   5.27
         L  47.15  32.92 L  61.71  50.01 L  70.07  46.90
         L  82.77  45.04 L  83.39  27.02 L  65.42  12.11
         M  68.52  50.63 L  91.14  49.39 L 103.53  43.17
         L 117.16  22.67 L 115.30   8.38"
         style="fill:none; stroke:saddlebrown; stroke-width:5;"/>
<path d="M  41.57  54.98 L  60.16  64.61 M  52.41  66.17
         L  57.99  57.47"
         style="fill:none; stroke:white; stroke-width:5;"/>
</g>
</g>
<animateMotion dur="20s" path="M3 0 L1918 0" begin="120s" fill="freeze"/>
</g>
<g transform="translate(3 1030)">
<g transform="scale(0.1)">
<text x="5" y="140" style="font-family:Brush Script MT;font-size:75px;fill:green;">Pajek</text>
</g>
<animateMotion dur="0.1s" path="M3 0 L1918 0" begin="120s" fill="freeze"/>
</g>
</g>      <!-- Layer Signature -->

<g inkscape:groupmode="layer" id="PajekNet" inkscape:label="PajekNetwork">

<!-- Edge:     1    2 -->
<line x1="861.92" y1="44.82" x2="1070.88" y2="160.33" style="stroke-width:2.00;stroke:rgb(204,204,255)"/>
<!-- Edge:     1    3 -->
<line x1="861.92" y1="44.82" x2="570.21" y2="124.39" style="stroke-width:2.00;stroke:rgb(204,204,255)"/>
<!-- Edge:     1    4 -->
<line x1="861.92" y1="44.82" x2="467.02" y2="257.23" style="stroke-width:2.00;stroke:rgb(204,204,255)"/>
<!-- Edge:     1    5 -->
<line x1="861.92" y1="44.82" x2="690.77" y2="250.34" style="stroke-width:2.00;stroke:rgb(204,204,255)"/>
<!-- Edge:     1    6 -->
<line x1="861.92" y1="44.82" x2="1417.03" y2="168.87" style="stroke-width:2.00;stroke:rgb(204,204,255)"/>
<!-- Edge:     1    7 -->
<line x1="861.92" y1="44.82" x2="816.57" y2="278.49" style="stroke-width:2.00;stroke:rgb(204,204,255)"/>
<!-- Edge:     2    3 -->
<line x1="1070.88" y1="160.33" x2="570.21" y2="124.39" style="stroke-width:2.00;stroke:rgb(204,204,255)"/>
<!-- Edge:     2    4 -->
<line x1="1070.88" y1="160.33" x2="467.02" y2="257.23" style="stroke-width:2.00;stroke:rgb(204,204,255)"/>
<!-- Edge:     2    5 -->
<line x1="1070.88" y1="160.33" x2="690.77" y2="250.34" style="stroke-width:2.00;stroke:rgb(204,204,255)"/>
<!-- Edge:     2    6 -->
<line x1="1070.88" y1="160.33" x2="1417.03" y2="168.87" style="stroke-width:2.00;stroke:rgb(204,204,255)"/>
<!-- Edge:     2    7 -->
<line x1="1070.88" y1="160.33" x2="816.57" y2="278.49" style="stroke-width:2.00;stroke:rgb(204,204,255)"/>
<!-- Edge:     2    8 -->
<line x1="1070.88" y1="160.33" x2="876.05" y2="181.43" style="stroke-width:2.00;stroke:rgb(204,204,255)"/>
<!-- Edge:     2   18 -->
<line x1="1070.88" y1="160.33" x2="1266.67" y2="455.53" style="stroke-width:2.00;stroke:rgb(204,204,255)"/>
<!-- Edge:     3    4 -->
<line x1="570.21" y1="124.39" x2="467.02" y2="257.23" style="stroke-width:2.00;stroke:rgb(204,204,255)"/>
<!-- Edge:     3    7 -->
<line x1="570.21" y1="124.39" x2="816.57" y2="278.49" style="stroke-width:2.00;stroke:rgb(204,204,255)"/>
<!-- Edge:     3    8 -->
<line x1="570.21" y1="124.39" x2="876.05" y2="181.43" style="stroke-width:2.00;stroke:rgb(204,204,255)"/>
<!-- Edge:     3   10 -->
<line x1="570.21" y1="124.39" x2="582.05" y2="417.77" style="stroke-width:2.00;stroke:rgb(204,204,255)"/>
<!-- Edge:     4    7 -->
<line x1="467.02" y1="257.23" x2="816.57" y2="278.49" style="stroke-width:2.00;stroke:rgb(204,204,255)"/>
<!-- Edge:     4   10 -->
<line x1="467.02" y1="257.23" x2="582.05" y2="417.77" style="stroke-width:2.00;stroke:rgb(204,204,255)"/>
<!-- Edge:     4   14 -->
<line x1="467.02" y1="257.23" x2="470.26" y2="573.33" style="stroke-width:2.00;stroke:rgb(204,204,255)"/>
<!-- Edge:     5    8 -->
<line x1="690.77" y1="250.34" x2="876.05" y2="181.43" style="stroke-width:2.00;stroke:rgb(204,204,255)"/>
<!-- Edge:     5    9 -->
<line x1="690.77" y1="250.34" x2="1101.53" y2="260.87" style="stroke-width:2.00;stroke:rgb(204,204,255)"/>
<!-- Edge:     5   10 -->
<line x1="690.77" y1="250.34" x2="582.05" y2="417.77" style="stroke-width:2.00;stroke:rgb(204,204,255)"/>
<!-- Edge:     5   12 -->
<line x1="690.77" y1="250.34" x2="898.40" y2="491.57" style="stroke-width:2.00;stroke:rgb(204,204,255)"/>
<!-- Edge:     6   18 -->
<line x1="1417.03" y1="168.87" x2="1266.67" y2="455.53" style="stroke-width:2.00;stroke:rgb(204,204,255)"/>
<!-- Edge:     7   10 -->
<line x1="816.57" y1="278.49" x2="582.05" y2="417.77" style="stroke-width:2.00;stroke:rgb(204,204,255)"/>
<!-- Edge:     7   11 -->
<line x1="816.57" y1="278.49" x2="961.34" y2="398.19" style="stroke-width:2.00;stroke:rgb(204,204,255)"/>
<!-- Edge:     7   22 -->
<line x1="816.57" y1="278.49" x2="1203.34" y2="395.34" style="stroke-width:2.00;stroke:rgb(204,204,255)"/>
<!-- Edge:     7   23 -->
<line x1="816.57" y1="278.49" x2="1109.19" y2="560.68" style="stroke-width:2.00;stroke:rgb(204,204,255)"/>
<!-- Edge:     8    9 -->
<line x1="876.05" y1="181.43" x2="1101.53" y2="260.87" style="stroke-width:2.00;stroke:rgb(204,204,255)"/>
<!-- Edge:     8   12 -->
<line x1="876.05" y1="181.43" x2="898.40" y2="491.57" style="stroke-width:2.00;stroke:rgb(204,204,255)"/>
<!-- Edge:     9   10 -->
<line x1="1101.53" y1="260.87" x2="582.05" y2="417.77" style="stroke-width:2.00;stroke:rgb(204,204,255)"/>
<!-- Edge:     9   11 -->
<line x1="1101.53" y1="260.87" x2="961.34" y2="398.19" style="stroke-width:2.00;stroke:rgb(204,204,255)"/>
<!-- Edge:     9   18 -->
<line x1="1101.53" y1="260.87" x2="1266.67" y2="455.53" style="stroke-width:2.00;stroke:rgb(204,204,255)"/>
<!-- Edge:    10   11 -->
<line x1="582.05" y1="417.77" x2="961.34" y2="398.19" style="stroke-width:2.00;stroke:rgb(204,204,255)"/>
<!-- Edge:    10   12 -->
<line x1="582.05" y1="417.77" x2="898.40" y2="491.57" style="stroke-width:2.00;stroke:rgb(204,204,255)"/>
<!-- Edge:    10   13 -->
<line x1="582.05" y1="417.77" x2="117.86" y2="573.72" style="stroke-width:2.00;stroke:rgb(204,204,255)"/>
<!-- Edge:    10   14 -->
<line x1="582.05" y1="417.77" x2="470.26" y2="573.33" style="stroke-width:2.00;stroke:rgb(204,204,255)"/>
<!-- Edge:    10   16 -->
<line x1="582.05" y1="417.77" x2="952.81" y2="597.48" style="stroke-width:2.00;stroke:rgb(204,204,255)"/>
<!-- Edge:    10   31 -->
<line x1="582.05" y1="417.77" x2="810.28" y2="686.09" style="stroke-width:2.00;stroke:rgb(204,204,255)"/>
<!-- Edge:    11   12 -->
<line x1="961.34" y1="398.19" x2="898.40" y2="491.57" style="stroke-width:2.00;stroke:rgb(204,204,255)"/>
<!-- Edge:    11   18 -->
<line x1="961.34" y1="398.19" x2="1266.67" y2="455.53" style="stroke-width:2.00;stroke:rgb(204,204,255)"/>
<!-- Edge:    11   22 -->
<line x1="961.34" y1="398.19" x2="1203.34" y2="395.34" style="stroke-width:2.00;stroke:rgb(204,204,255)"/>
<!-- Edge:    11   25 -->
<line x1="961.34" y1="398.19" x2="1070.86" y2="728.40" style="stroke-width:2.00;stroke:rgb(204,204,255)"/>
<!-- Edge:    12   14 -->
<line x1="898.40" y1="491.57" x2="470.26" y2="573.33" style="stroke-width:2.00;stroke:rgb(204,204,255)"/>
<!-- Edge:    12   16 -->
<line x1="898.40" y1="491.57" x2="952.81" y2="597.48" style="stroke-width:2.00;stroke:rgb(204,204,255)"/>
<!-- Edge:    12   17 -->
<line x1="898.40" y1="491.57" x2="1491.21" y2="414.53" style="stroke-width:2.00;stroke:rgb(204,204,255)"/>
<!-- Edge:    12   18 -->
<line x1="898.40" y1="491.57" x2="1266.67" y2="455.53" style="stroke-width:2.00;stroke:rgb(204,204,255)"/>
<!-- Edge:    12   19 -->
<line x1="898.40" y1="491.57" x2="1221.71" y2="664.65" style="stroke-width:2.00;stroke:rgb(204,204,255)"/>
<!-- Edge:    12   20 -->
<line x1="898.40" y1="491.57" x2="742.24" y2="772.21" style="stroke-width:2.00;stroke:rgb(204,204,255)"/>
<!-- Edge:    12   22 -->
<line x1="898.40" y1="491.57" x2="1203.34" y2="395.34" style="stroke-width:2.00;stroke:rgb(204,204,255)"/>
<!-- Edge:    12   23 -->
<line x1="898.40" y1="491.57" x2="1109.19" y2="560.68" style="stroke-width:2.00;stroke:rgb(204,204,255)"/>
<!-- Edge:    12   24 -->
<line x1="898.40" y1="491.57" x2="1552.14" y2="512.53" style="stroke-width:2.00;stroke:rgb(204,204,255)"/>
<!-- Edge:    12   25 -->
<line x1="898.40" y1="491.57" x2="1070.86" y2="728.40" style="stroke-width:2.00;stroke:rgb(204,204,255)"/>
<!-- Edge:    12   27 -->
<line x1="898.40" y1="491.57" x2="939.94" y2="749.59" style="stroke-width:2.00;stroke:rgb(204,204,255)"/>
<!-- Edge:    12   28 -->
<line x1="898.40" y1="491.57" x2="779.87" y2="598.13" style="stroke-width:2.00;stroke:rgb(204,204,255)"/>
<!-- Edge:    12   34 -->
<line x1="898.40" y1="491.57" x2="307.62" y2="492.92" style="stroke-width:2.00;stroke:rgb(204,204,255)"/>
<!-- Edge:    13   14 -->
<line x1="117.86" y1="573.72" x2="470.26" y2="573.33" style="stroke-width:2.00;stroke:rgb(204,204,255)"/>
<!-- Edge:    13   15 -->
<line x1="117.86" y1="573.72" x2="352.47" y2="809.98" style="stroke-width:2.00;stroke:rgb(204,204,255)"/>
<!-- Edge:    14   15 -->
<line x1="470.26" y1="573.33" x2="352.47" y2="809.98" style="stroke-width:2.00;stroke:rgb(204,204,255)"/>
<!-- Edge:    14   20 -->
<line x1="470.26" y1="573.33" x2="742.24" y2="772.21" style="stroke-width:2.00;stroke:rgb(204,204,255)"/>
<!-- Edge:    14   32 -->
<line x1="470.26" y1="573.33" x2="493.65" y2="870.79" style="stroke-width:2.00;stroke:rgb(204,204,255)"/>
<!-- Edge:    15   20 -->
<line x1="352.47" y1="809.98" x2="742.24" y2="772.21" style="stroke-width:2.00;stroke:rgb(204,204,255)"/>
<!-- Edge:    15   27 -->
<line x1="352.47" y1="809.98" x2="939.94" y2="749.59" style="stroke-width:2.00;stroke:rgb(204,204,255)"/>
<!-- Edge:    15   29 -->
<line x1="352.47" y1="809.98" x2="663.68" y2="1004.55" style="stroke-width:2.00;stroke:rgb(204,204,255)"/>
<!-- Edge:    15   32 -->
<line x1="352.47" y1="809.98" x2="493.65" y2="870.79" style="stroke-width:2.00;stroke:rgb(204,204,255)"/>
<!-- Edge:    15   33 -->
<line x1="352.47" y1="809.98" x2="366.88" y2="716.96" style="stroke-width:2.00;stroke:rgb(204,204,255)"/>
<!-- Edge:    16   18 -->
<line x1="952.81" y1="597.48" x2="1266.67" y2="455.53" style="stroke-width:2.00;stroke:rgb(204,204,255)"/>
<!-- Edge:    16   19 -->
<line x1="952.81" y1="597.48" x2="1221.71" y2="664.65" style="stroke-width:2.00;stroke:rgb(204,204,255)"/>
<!-- Edge:    16   26 -->
<line x1="952.81" y1="597.48" x2="1039.88" y2="915.21" style="stroke-width:2.00;stroke:rgb(204,204,255)"/>
<!-- Edge:    17   18 -->
<line x1="1491.21" y1="414.53" x2="1266.67" y2="455.53" style="stroke-width:2.00;stroke:rgb(204,204,255)"/>
<!-- Edge:    17   23 -->
<line x1="1491.21" y1="414.53" x2="1109.19" y2="560.68" style="stroke-width:2.00;stroke:rgb(204,204,255)"/>
<!-- Edge:    18   19 -->
<line x1="1266.67" y1="455.53" x2="1221.71" y2="664.65" style="stroke-width:2.00;stroke:rgb(204,204,255)"/>
<!-- Edge:    18   21 -->
<line x1="1266.67" y1="455.53" x2="1280.04" y2="762.17" style="stroke-width:2.00;stroke:rgb(204,204,255)"/>
<!-- Edge:    18   23 -->
<line x1="1266.67" y1="455.53" x2="1109.19" y2="560.68" style="stroke-width:2.00;stroke:rgb(204,204,255)"/>
<!-- Edge:    18   24 -->
<line x1="1266.67" y1="455.53" x2="1552.14" y2="512.53" style="stroke-width:2.00;stroke:rgb(204,204,255)"/>
<!-- Edge:    18   28 -->
<line x1="1266.67" y1="455.53" x2="779.87" y2="598.13" style="stroke-width:2.00;stroke:rgb(204,204,255)"/>
<!-- Edge:    18   30 -->
<line x1="1266.67" y1="455.53" x2="1506.61" y2="675.50" style="stroke-width:2.00;stroke:rgb(204,204,255)"/>
<!-- Edge:    19   21 -->
<line x1="1221.71" y1="664.65" x2="1280.04" y2="762.17" style="stroke-width:2.00;stroke:rgb(204,204,255)"/>
<!-- Edge:    19   25 -->
<line x1="1221.71" y1="664.65" x2="1070.86" y2="728.40" style="stroke-width:2.00;stroke:rgb(204,204,255)"/>
<!-- Edge:    19   26 -->
<line x1="1221.71" y1="664.65" x2="1039.88" y2="915.21" style="stroke-width:2.00;stroke:rgb(204,204,255)"/>
<!-- Edge:    19   27 -->
<line x1="1221.71" y1="664.65" x2="939.94" y2="749.59" style="stroke-width:2.00;stroke:rgb(204,204,255)"/>
<!-- Edge:    19   28 -->
<line x1="1221.71" y1="664.65" x2="779.87" y2="598.13" style="stroke-width:2.00;stroke:rgb(204,204,255)"/>
<!-- Edge:    19   30 -->
<line x1="1221.71" y1="664.65" x2="1506.61" y2="675.50" style="stroke-width:2.00;stroke:rgb(204,204,255)"/>
<!-- Edge:    19   31 -->
<line x1="1221.71" y1="664.65" x2="810.28" y2="686.09" style="stroke-width:2.00;stroke:rgb(204,204,255)"/>
<!-- Edge:    20   21 -->
<line x1="742.24" y1="772.21" x2="1280.04" y2="762.17" style="stroke-width:2.00;stroke:rgb(204,204,255)"/>
<!-- Edge:    20   23 -->
<line x1="742.24" y1="772.21" x2="1109.19" y2="560.68" style="stroke-width:2.00;stroke:rgb(204,204,255)"/>
<!-- Edge:    20   25 -->
<line x1="742.24" y1="772.21" x2="1070.86" y2="728.40" style="stroke-width:2.00;stroke:rgb(204,204,255)"/>
<!-- Edge:    20   26 -->
<line x1="742.24" y1="772.21" x2="1039.88" y2="915.21" style="stroke-width:2.00;stroke:rgb(204,204,255)"/>
<!-- Edge:    20   28 -->
<line x1="742.24" y1="772.21" x2="779.87" y2="598.13" style="stroke-width:2.00;stroke:rgb(204,204,255)"/>
<!-- Edge:    20   29 -->
<line x1="742.24" y1="772.21" x2="663.68" y2="1004.55" style="stroke-width:2.00;stroke:rgb(204,204,255)"/>
<!-- Edge:    20   31 -->
<line x1="742.24" y1="772.21" x2="810.28" y2="686.09" style="stroke-width:2.00;stroke:rgb(204,204,255)"/>
<!-- Edge:    20   32 -->
<line x1="742.24" y1="772.21" x2="493.65" y2="870.79" style="stroke-width:2.00;stroke:rgb(204,204,255)"/>
<!-- Edge:    20   33 -->
<line x1="742.24" y1="772.21" x2="366.88" y2="716.96" style="stroke-width:2.00;stroke:rgb(204,204,255)"/>
<!-- Edge:    21   23 -->
<line x1="1280.04" y1="762.17" x2="1109.19" y2="560.68" style="stroke-width:2.00;stroke:rgb(204,204,255)"/>
<!-- Edge:    21   31 -->
<line x1="1280.04" y1="762.17" x2="810.28" y2="686.09" style="stroke-width:2.00;stroke:rgb(204,204,255)"/>
<!-- Edge:    22   23 -->
<line x1="1203.34" y1="395.34" x2="1109.19" y2="560.68" style="stroke-width:2.00;stroke:rgb(204,204,255)"/>
<!-- Edge:    22   27 -->
<line x1="1203.34" y1="395.34" x2="939.94" y2="749.59" style="stroke-width:2.00;stroke:rgb(204,204,255)"/>
<!-- Edge:    23   25 -->
<line x1="1109.19" y1="560.68" x2="1070.86" y2="728.40" style="stroke-width:2.00;stroke:rgb(204,204,255)"/>
<!-- Edge:    23   27 -->
<line x1="1109.19" y1="560.68" x2="939.94" y2="749.59" style="stroke-width:2.00;stroke:rgb(204,204,255)"/>
<!-- Edge:    23   28 -->
<line x1="1109.19" y1="560.68" x2="779.87" y2="598.13" style="stroke-width:2.00;stroke:rgb(204,204,255)"/>
<!-- Edge:    23   31 -->
<line x1="1109.19" y1="560.68" x2="810.28" y2="686.09" style="stroke-width:2.00;stroke:rgb(204,204,255)"/>
<!-- Edge:    24   30 -->
<line x1="1552.14" y1="512.53" x2="1506.61" y2="675.50" style="stroke-width:2.00;stroke:rgb(204,204,255)"/>
<!-- Edge:    25   26 -->
<line x1="1070.86" y1="728.40" x2="1039.88" y2="915.21" style="stroke-width:2.00;stroke:rgb(204,204,255)"/>
<!-- Edge:    25   28 -->
<line x1="1070.86" y1="728.40" x2="779.87" y2="598.13" style="stroke-width:2.00;stroke:rgb(204,204,255)"/>
<!-- Edge:    26   29 -->
<line x1="1039.88" y1="915.21" x2="663.68" y2="1004.55" style="stroke-width:2.00;stroke:rgb(204,204,255)"/>
<!-- Edge:    27   31 -->
<line x1="939.94" y1="749.59" x2="810.28" y2="686.09" style="stroke-width:2.00;stroke:rgb(204,204,255)"/>
<!-- Edge:    28   31 -->
<line x1="779.87" y1="598.13" x2="810.28" y2="686.09" style="stroke-width:2.00;stroke:rgb(204,204,255)"/>
<!-- Edge:    28   33 -->
<line x1="779.87" y1="598.13" x2="366.88" y2="716.96" style="stroke-width:2.00;stroke:rgb(204,204,255)"/>
<!-- Edge:    29   32 -->
<line x1="663.68" y1="1004.55" x2="493.65" y2="870.79" style="stroke-width:2.00;stroke:rgb(204,204,255)"/>
<!-- Edge:    30   31 -->
<line x1="1506.61" y1="675.50" x2="810.28" y2="686.09" style="stroke-width:2.00;stroke:rgb(204,204,255)"/>
<!-- Edge:    31   32 -->
<line x1="810.28" y1="686.09" x2="493.65" y2="870.79" style="stroke-width:2.00;stroke:rgb(204,204,255)"/>
<!-- Edge:    31   33 -->
<line x1="810.28" y1="686.09" x2="366.88" y2="716.96" style="stroke-width:2.00;stroke:rgb(204,204,255)"/>
<!-- Edge:    32   33 -->
<line x1="493.65" y1="870.79" x2="366.88" y2="716.96" style="stroke-width:2.00;stroke:rgb(204,204,255)"/>
<!-- Edge:    33   34 -->
<line x1="366.88" y1="716.96" x2="307.62" y2="492.92" style="stroke-width:2.00;stroke:rgb(204,204,255)"/>
<!-- Edge:    10   35 -->
<line x1="582.05" y1="417.77" x2="80.26" y2="335.44" style="stroke-width:2.00;stroke:rgb(204,204,255)"/>
<!-- Edge:    34   35 -->
<line x1="307.62" y1="492.92" x2="80.26" y2="335.44" style="stroke-width:2.00;stroke:rgb(204,204,255)"/>

<!-- Vertex:     1 -->
<ellipse cx="861.92" cy="44.82" rx="15.63" ry="15.63" style="fill:rgb(153,50,204);stroke:rgb(153,50,204);stroke-width:0.50;"/>
<text x="867.09" y="64.14" style="font-family:Arial;font-weight: bold;font-size:15px;fill:rgb(0,0,0)">Madero, Francisco</text>
<!-- Vertex:     2 -->
<ellipse cx="1070.88" cy="160.33" rx="15.63" ry="15.63" style="fill:rgb(153,50,204);stroke:rgb(153,50,204);stroke-width:0.50;"/>
<text x="1076.06" y="179.65" style="font-family:Arial;font-weight: bold;font-size:15px;fill:rgb(0,0,0)">Carranza, Venustiano</text>
<!-- Vertex:     3 -->
<ellipse cx="570.21" cy="124.39" rx="15.63" ry="15.63" style="fill:rgb(153,50,204);stroke:rgb(153,50,204);stroke-width:0.50;"/>
<text x="575.39" y="143.71" style="font-family:Arial;font-weight: bold;font-size:15px;fill:rgb(0,0,0)">Obregon, Alvaro</text>
<!-- Vertex:     4 -->
<ellipse cx="467.02" cy="257.23" rx="15.63" ry="15.63" style="fill:rgb(153,50,204);stroke:rgb(153,50,204);stroke-width:0.50;"/>
<text x="472.19" y="276.54" style="font-family:Arial;font-weight: bold;font-size:15px;fill:rgb(0,0,0)">Calles, Plutarco E.</text>
<!-- Vertex:     5 -->
<ellipse cx="690.77" cy="250.34" rx="15.63" ry="15.63" style="fill:rgb(153,50,204);stroke:rgb(153,50,204);stroke-width:0.50;"/>
<text x="695.94" y="269.66" style="font-family:Arial;font-weight: bold;font-size:15px;fill:rgb(0,0,0)">Aguilar, Candido</text>
<!-- Vertex:     6 -->
<ellipse cx="1417.03" cy="168.87" rx="15.63" ry="15.63" style="fill:rgb(153,50,204);stroke:rgb(153,50,204);stroke-width:0.50;"/>
<text x="1422.20" y="188.18" style="font-family:Arial;font-weight: bold;font-size:15px;fill:rgb(0,0,0)">Trevino, Jacinto B.</text>
<!-- Vertex:     7 -->
<ellipse cx="816.57" cy="278.49" rx="15.63" ry="15.63" style="fill:rgb(153,50,204);stroke:rgb(153,50,204);stroke-width:0.50;"/>
<text x="821.75" y="297.81" style="font-family:Arial;font-weight: bold;font-size:15px;fill:rgb(0,0,0)">Portes Gil, Emilio</text>
<!-- Vertex:     8 -->
<ellipse cx="876.05" cy="181.43" rx="15.63" ry="15.63" style="fill:rgb(153,50,204);stroke:rgb(153,50,204);stroke-width:0.50;"/>
<text x="881.23" y="200.75" style="font-family:Arial;font-weight: bold;font-size:15px;fill:rgb(0,0,0)">Aleman Gonzalez, Miguel</text>
<!-- Vertex:     9 -->
<ellipse cx="1101.53" cy="260.87" rx="15.63" ry="15.63" style="fill:rgb(153,50,204);stroke:rgb(153,50,204);stroke-width:0.50;"/>
<text x="1106.70" y="280.19" style="font-family:Arial;font-weight: bold;font-size:15px;fill:rgb(0,0,0)">Jara, Heriberto</text>
<!-- Vertex:    10 -->
<ellipse cx="582.05" cy="417.77" rx="15.63" ry="15.63" style="fill:rgb(153,50,204);stroke:rgb(153,50,204);stroke-width:0.50;"/>
<text x="587.23" y="437.09" style="font-family:Arial;font-weight: bold;font-size:15px;fill:rgb(0,0,0)">Cardenas, Lazaro</text>
<!-- Vertex:    11 -->
<ellipse cx="961.34" cy="398.19" rx="15.63" ry="15.63" style="fill:rgb(153,50,204);stroke:rgb(153,50,204);stroke-width:0.50;"/>
<text x="966.51" y="417.51" style="font-family:Arial;font-weight: bold;font-size:15px;fill:rgb(0,0,0)">Avila Camacho, Manuel</text>
<!-- Vertex:    12 -->
<ellipse cx="898.40" cy="491.57" rx="15.63" ry="15.63" style="fill:rgb(153,50,204);stroke:rgb(153,50,204);stroke-width:0.50;"/>
<text x="903.58" y="510.89" style="font-family:Arial;font-weight: bold;font-size:15px;fill:rgb(0,0,0)">Aleman Valdes, Miguel</text>
<!-- Vertex:    13 -->
<ellipse cx="117.86" cy="573.72" rx="15.63" ry="15.63" style="fill:rgb(153,50,204);stroke:rgb(153,50,204);stroke-width:0.50;"/>
<text x="123.04" y="593.04" style="font-family:Arial;font-weight: bold;font-size:15px;fill:rgb(0,0,0)">Beteta, Ignacio</text>
<!-- Vertex:    14 -->
<ellipse cx="470.26" cy="573.33" rx="15.63" ry="15.63" style="fill:rgb(153,50,204);stroke:rgb(153,50,204);stroke-width:0.50;"/>
<text x="475.44" y="592.65" style="font-family:Arial;font-weight: bold;font-size:15px;fill:rgb(0,0,0)">Beteta, Ramon</text>
<!-- Vertex:    15 -->
<ellipse cx="352.47" cy="809.98" rx="15.63" ry="15.63" style="fill:rgb(153,50,204);stroke:rgb(153,50,204);stroke-width:0.50;"/>
<text x="357.65" y="829.29" style="font-family:Arial;font-weight: bold;font-size:15px;fill:rgb(0,0,0)">Beteta, Mario Ramon</text>
<!-- Vertex:    16 -->
<ellipse cx="952.81" cy="597.48" rx="15.63" ry="15.63" style="fill:rgb(153,50,204);stroke:rgb(153,50,204);stroke-width:0.50;"/>
<text x="957.99" y="616.80" style="font-family:Arial;font-weight: bold;font-size:15px;fill:rgb(0,0,0)">Sanchez Taboada, Rodolfo</text>
<!-- Vertex:    17 -->
<ellipse cx="1491.21" cy="414.53" rx="15.63" ry="15.63" style="fill:rgb(153,50,204);stroke:rgb(153,50,204);stroke-width:0.50;"/>
<text x="1496.39" y="433.85" style="font-family:Arial;font-weight: bold;font-size:15px;fill:rgb(0,0,0)">Carvajal, Angel</text>
<!-- Vertex:    18 -->
<ellipse cx="1266.67" cy="455.53" rx="15.63" ry="15.63" style="fill:rgb(153,50,204);stroke:rgb(153,50,204);stroke-width:0.50;"/>
<text x="1271.85" y="474.85" style="font-family:Arial;font-weight: bold;font-size:15px;fill:rgb(0,0,0)">Ruiz Cortines, Adolfo</text>
<!-- Vertex:    19 -->
<ellipse cx="1221.71" cy="664.65" rx="15.63" ry="15.63" style="fill:rgb(153,50,204);stroke:rgb(153,50,204);stroke-width:0.50;"/>
<text x="1226.89" y="683.97" style="font-family:Arial;font-weight: bold;font-size:15px;fill:rgb(0,0,0)">Lopez Mateos, Adolfo</text>
<!-- Vertex:    20 -->
<ellipse cx="742.24" cy="772.21" rx="15.63" ry="15.63" style="fill:rgb(153,50,204);stroke:rgb(153,50,204);stroke-width:0.50;"/>
<text x="747.42" y="791.53" style="font-family:Arial;font-weight: bold;font-size:15px;fill:rgb(0,0,0)">Margain, Hugo B.</text>
<!-- Vertex:    21 -->
<ellipse cx="1280.04" cy="762.17" rx="15.63" ry="15.63" style="fill:rgb(153,50,204);stroke:rgb(153,50,204);stroke-width:0.50;"/>
<text x="1285.21" y="781.49" style="font-family:Arial;font-weight: bold;font-size:15px;fill:rgb(0,0,0)">Gonzalez Blanco, Salomon</text>
<!-- Vertex:    22 -->
<ellipse cx="1203.34" cy="395.34" rx="15.63" ry="15.63" style="fill:rgb(153,50,204);stroke:rgb(153,50,204);stroke-width:0.50;"/>
<text x="1208.51" y="414.66" style="font-family:Arial;font-weight: bold;font-size:15px;fill:rgb(0,0,0)">Serra Rojas, Andres</text>
<!-- Vertex:    23 -->
<ellipse cx="1109.19" cy="560.68" rx="15.63" ry="15.63" style="fill:rgb(153,50,204);stroke:rgb(153,50,204);stroke-width:0.50;"/>
<text x="1114.36" y="580.00" style="font-family:Arial;font-weight: bold;font-size:15px;fill:rgb(0,0,0)">Carrillo Flores, Antonio</text>
<!-- Vertex:    24 -->
<ellipse cx="1552.14" cy="512.53" rx="15.63" ry="15.63" style="fill:rgb(153,50,204);stroke:rgb(153,50,204);stroke-width:0.50;"/>
<text x="1557.32" y="531.84" style="font-family:Arial;font-weight: bold;font-size:15px;fill:rgb(0,0,0)">Ruiz Galindo, Antonio</text>
<!-- Vertex:    25 -->
<ellipse cx="1070.86" cy="728.40" rx="15.63" ry="15.63" style="fill:rgb(153,50,204);stroke:rgb(153,50,204);stroke-width:0.50;"/>
<text x="1076.04" y="747.72" style="font-family:Arial;font-weight: bold;font-size:15px;fill:rgb(0,0,0)">Diaz Ordaz, Gustavo</text>
<!-- Vertex:    26 -->
<ellipse cx="1039.88" cy="915.21" rx="15.63" ry="15.63" style="fill:rgb(153,50,204);stroke:rgb(153,50,204);stroke-width:0.50;"/>
<text x="1045.05" y="934.53" style="font-family:Arial;font-weight: bold;font-size:15px;fill:rgb(0,0,0)">Echeverria Alvarez, Luis</text>
<!-- Vertex:    27 -->
<ellipse cx="939.94" cy="749.59" rx="15.63" ry="15.63" style="fill:rgb(153,50,204);stroke:rgb(153,50,204);stroke-width:0.50;"/>
<text x="945.12" y="768.91" style="font-family:Arial;font-weight: bold;font-size:15px;fill:rgb(0,0,0)">Bustamante, Eduardo</text>
<!-- Vertex:    28 -->
<ellipse cx="779.87" cy="598.13" rx="15.63" ry="15.63" style="fill:rgb(153,50,204);stroke:rgb(153,50,204);stroke-width:0.50;"/>
<text x="785.05" y="617.44" style="font-family:Arial;font-weight: bold;font-size:15px;fill:rgb(0,0,0)">Ortiz Mena, Antonio</text>
<!-- Vertex:    29 -->
<ellipse cx="663.68" cy="1004.55" rx="15.63" ry="15.63" style="fill:rgb(153,50,204);stroke:rgb(153,50,204);stroke-width:0.50;"/>
<text x="668.86" y="1023.87" style="font-family:Arial;font-weight: bold;font-size:15px;fill:rgb(0,0,0)">Lopez Portillo, Jose</text>
<!-- Vertex:    30 -->
<ellipse cx="1506.61" cy="675.50" rx="15.63" ry="15.63" style="fill:rgb(153,50,204);stroke:rgb(153,50,204);stroke-width:0.50;"/>
<text x="1511.79" y="694.82" style="font-family:Arial;font-weight: bold;font-size:15px;fill:rgb(0,0,0)">Loyo, Gilberto</text>
<!-- Vertex:    31 -->
<ellipse cx="810.28" cy="686.09" rx="15.63" ry="15.63" style="fill:rgb(153,50,204);stroke:rgb(153,50,204);stroke-width:0.50;"/>
<text x="815.45" y="705.41" style="font-family:Arial;font-weight: bold;font-size:15px;fill:rgb(0,0,0)">Salinas Lozano, Raul</text>
<!-- Vertex:    32 -->
<ellipse cx="493.65" cy="870.79" rx="15.63" ry="15.63" style="fill:rgb(153,50,204);stroke:rgb(153,50,204);stroke-width:0.50;"/>
<text x="498.83" y="890.11" style="font-family:Arial;font-weight: bold;font-size:15px;fill:rgb(0,0,0)">De la Madrid, Miguel</text>
<!-- Vertex:    33 -->
<ellipse cx="366.88" cy="716.96" rx="15.63" ry="15.63" style="fill:rgb(153,50,204);stroke:rgb(153,50,204);stroke-width:0.50;"/>
<text x="372.05" y="736.28" style="font-family:Arial;font-weight: bold;font-size:15px;fill:rgb(0,0,0)">Salinas de Gortari, Carlos</text>
<!-- Vertex:    34 -->
<ellipse cx="307.62" cy="492.92" rx="15.63" ry="15.63" style="fill:rgb(153,50,204);stroke:rgb(153,50,204);stroke-width:0.50;"/>
<text x="312.80" y="512.24" style="font-family:Arial;font-weight: bold;font-size:15px;fill:rgb(0,0,0)">Aleman Velasco, Miguel</text>
<!-- Vertex:    35 -->
<ellipse cx="80.26" cy="335.44" rx="15.63" ry="15.63" style="fill:rgb(153,50,204);stroke:rgb(153,50,204);stroke-width:0.50;"/>
<text x="85.44" y="354.76" style="font-family:Arial;font-weight: bold;font-size:15px;fill:rgb(0,0,0)">Cardenas, Cuauhtemoc</text>
</g>         <!-- Layer Network -->
</svg>
